<svg width="5402" height="1941" viewBox="0 0 5402 1941" fill="none" xmlns="http://www.w3.org/2000/svg">
<path d="M1958.14 990.597C1930.47 990.597 1904.97 986.264 1881.64 977.597C1858.64 968.597 1838.47 955.931 1821.14 939.597C1804.14 923.264 1790.81 904.097 1781.14 882.097C1771.81 860.097 1767.14 835.93 1767.14 809.597C1767.14 783.264 1771.81 759.097 1781.14 737.097C1790.81 715.097 1804.31 695.93 1821.64 679.597C1838.97 663.264 1859.31 650.764 1882.64 642.097C1905.97 633.097 1931.64 628.597 1959.64 628.597C1990.64 628.597 2018.47 633.764 2043.14 644.097C2068.14 654.43 2089.14 669.43 2106.14 689.097L2054.14 737.097C2041.47 723.764 2027.64 713.93 2012.64 707.597C1997.64 700.93 1981.31 697.597 1963.64 697.597C1946.64 697.597 1931.14 700.264 1917.14 705.597C1903.14 710.93 1890.97 718.597 1880.64 728.597C1870.64 738.597 1862.81 750.43 1857.14 764.097C1851.81 777.764 1849.14 792.93 1849.14 809.597C1849.14 825.93 1851.81 840.93 1857.14 854.597C1862.81 868.264 1870.64 880.264 1880.64 890.597C1890.97 900.597 1902.97 908.264 1916.64 913.597C1930.64 918.93 1945.97 921.597 1962.64 921.597C1978.64 921.597 1994.14 919.097 2009.14 914.097C2024.47 908.764 2039.31 899.93 2053.64 887.597L2099.64 946.097C2080.64 960.43 2058.47 971.431 2033.14 979.097C2008.14 986.764 1983.14 990.597 1958.14 990.597ZM2025.64 935.597V804.097H2099.64V946.097L2025.64 935.597ZM2564.88 990.597C2537.22 990.597 2511.55 986.097 2487.88 977.097C2464.55 968.097 2444.22 955.43 2426.88 939.097C2409.88 922.764 2396.55 903.597 2386.88 881.597C2377.55 859.597 2372.88 835.597 2372.88 809.597C2372.88 783.597 2377.55 759.597 2386.88 737.597C2396.55 715.597 2410.05 696.43 2427.38 680.097C2444.72 663.764 2465.05 651.097 2488.38 642.097C2511.72 633.097 2537.05 628.597 2564.38 628.597C2592.05 628.597 2617.38 633.097 2640.38 642.097C2663.72 651.097 2683.88 663.764 2700.88 680.097C2718.22 696.43 2731.72 715.597 2741.38 737.597C2751.05 759.264 2755.88 783.264 2755.88 809.597C2755.88 835.597 2751.05 859.764 2741.38 882.097C2731.72 904.097 2718.22 923.264 2700.88 939.597C2683.88 955.597 2663.72 968.097 2640.38 977.097C2617.38 986.097 2592.22 990.597 2564.88 990.597ZM2564.38 921.597C2580.05 921.597 2594.38 918.93 2607.38 913.597C2620.72 908.264 2632.38 900.597 2642.38 890.597C2652.38 880.597 2660.05 868.764 2665.38 855.097C2671.05 841.43 2673.88 826.264 2673.88 809.597C2673.88 792.93 2671.05 777.764 2665.38 764.097C2660.05 750.43 2652.38 738.597 2642.38 728.597C2632.72 718.597 2621.22 710.93 2607.88 705.597C2594.55 700.264 2580.05 697.597 2564.38 697.597C2548.72 697.597 2534.22 700.264 2520.88 705.597C2507.88 710.93 2496.38 718.597 2486.38 728.597C2476.38 738.597 2468.55 750.43 2462.88 764.097C2457.55 777.764 2454.88 792.93 2454.88 809.597C2454.88 825.93 2457.55 841.097 2462.88 855.097C2468.55 868.764 2476.22 880.597 2485.88 890.597C2495.88 900.597 2507.55 908.264 2520.88 913.597C2534.22 918.93 2548.72 921.597 2564.38 921.597Z" fill="#8DC9F0"/>
<path d="M3036.76 984.597V634.597H3188.26C3219.59 634.597 3246.59 639.764 3269.26 650.097C3291.92 660.097 3309.42 674.597 3321.76 693.597C3334.09 712.597 3340.26 735.264 3340.26 761.597C3340.26 787.597 3334.09 810.097 3321.76 829.097C3309.42 848.097 3291.92 862.764 3269.26 873.097C3246.59 883.097 3219.59 888.097 3188.26 888.097H3081.76L3117.76 851.597V984.597H3036.76ZM3117.76 860.597L3081.76 822.097H3183.76C3208.76 822.097 3227.42 816.764 3239.76 806.097C3252.09 795.43 3258.26 780.597 3258.26 761.597C3258.26 742.264 3252.09 727.264 3239.76 716.597C3227.42 705.93 3208.76 700.597 3183.76 700.597H3081.76L3117.76 662.097V860.597ZM3618.09 984.597V634.597H3769.59C3800.92 634.597 3827.92 639.764 3850.59 650.097C3873.25 660.097 3890.75 674.597 3903.09 693.597C3915.42 712.597 3921.59 735.264 3921.59 761.597C3921.59 787.597 3915.42 810.097 3903.09 829.097C3890.75 848.097 3873.25 862.764 3850.59 873.097C3827.92 883.097 3800.92 888.097 3769.59 888.097H3663.09L3699.09 851.597V984.597H3618.09ZM3699.09 860.597L3663.09 822.097H3765.09C3790.09 822.097 3808.75 816.764 3821.09 806.097C3833.42 795.43 3839.59 780.597 3839.59 761.597C3839.59 742.264 3833.42 727.264 3821.09 716.597C3808.75 705.93 3790.09 700.597 3765.09 700.597H3663.09L3699.09 662.097V860.597ZM4262.64 984.597V700.597H4150.64V634.597H4455.64V700.597H4343.64V984.597H4262.64ZM4664.08 984.597L4814.58 777.097V836.097L4670.58 634.597H4762.58L4862.08 775.097L4823.58 775.597L4921.58 634.597H5009.58L4866.58 832.597V774.597L5018.08 984.597H4924.58L4821.58 836.097H4858.58L4757.08 984.597H4664.08Z" fill="#D24625"/>
<path d="M979.867 1711.9C991.281 1709.83 1000.21 1710.5 1007.23 1713.41C1014.25 1716.32 1019.41 1721.45 1023.84 1727.99C1028.28 1734.52 1032.07 1742.43 1035.88 1750.92C1039.68 1759.42 1043.41 1768.51 1047.05 1777.66C1050.68 1786.81 1053.48 1795.62 1055.28 1803.87C1057.09 1812.12 1057.95 1819.79 1057.52 1826.54C1057.08 1833.3 1055.3 1839.14 1051.55 1843.71C1047.8 1848.28 1042.06 1851.57 1033.89 1853.19C1025.71 1854.81 1019.1 1853.97 1013.89 1851.21C1008.67 1848.45 1004.88 1843.78 1002 1837.79C999.121 1831.79 997.161 1824.48 995.033 1816.4C992.904 1808.33 990.516 1799.5 986.741 1790.33C982.967 1781.17 977.205 1772.3 971.716 1763.9C966.228 1755.49 961.107 1747.54 958.349 1740.47C955.59 1733.4 955.193 1727.23 958.425 1722.37C961.657 1717.51 968.452 1713.97 979.867 1711.9Z" fill="#E1D6B9"/>
<path d="M951.859 1739.31C953.876 1746.16 957.759 1753.8 962.298 1761.96C967.486 1771.3 973.46 1781.31 977.796 1791.88C982.133 1802.44 985.14 1812.5 988.022 1821.66C990.905 1830.83 993.783 1839.1 997.767 1845.88C1001.75 1852.67 1006.84 1857.96 1013.29 1861.16C1019.75 1864.36 1027.52 1865.47 1036.53 1863.96C1045.54 1862.44 1052.21 1858.75 1056.81 1853.44C1061.41 1848.13 1063.96 1841.19 1064.99 1833.17C1066.02 1825.14 1065.56 1816.03 1063.91 1806.31C1062.25 1796.6 1059.33 1786.3 1055.19 1775.76C1051.05 1765.22 1046.77 1755.22 1042.45 1746.12C1038.13 1737.03 1033.83 1728.85 1028.74 1722.24C1026.81 1719.73 1024.74 1717.45 1022.51 1715.43C1018 1711.36 1005.36 1714.61 1010.79 1717.76C1015.81 1720.68 1017.45 1724.52 1020.86 1729.7C1025.02 1736.01 1027.99 1744.15 1031.33 1751.94C1034.67 1759.74 1040.84 1767.11 1044.13 1775.23C1047.41 1783.36 1049.91 1791.25 1051.5 1798.78C1053.1 1806.31 1053.85 1813.47 1053.43 1819.83C1053.02 1826.2 1051.38 1831.75 1047.93 1836.01C1044.48 1840.27 1039.22 1843.23 1031.95 1844.65C1024.68 1846.08 1018.95 1845.29 1014.63 1842.67C1010.31 1840.06 1009.99 1832.71 1007.94 1827.16C1005.9 1821.62 1002.69 1814.83 1000.86 1807.69C999.029 1800.56 995.968 1795.99 991.562 1788.13C987.157 1780.26 980.393 1772.55 974.185 1764.57C967.977 1756.58 962.977 1748.86 960.323 1742.06C959.992 1741.21 959.693 1740.37 959.434 1739.55C958.77 1737.44 958.297 1735.42 958.239 1733.51C958.172 1731.3 949.529 1730.64 951.112 1736.42C951.369 1737.36 951.571 1738.33 951.859 1739.31Z" fill="#394655"/>
<path d="M442.254 1685.99C430.84 1683.91 421.908 1684.59 414.888 1687.5C407.868 1690.41 402.711 1695.54 398.276 1702.07C393.842 1708.6 390.049 1716.51 386.244 1725C382.438 1733.5 378.711 1742.59 375.074 1751.74C371.437 1760.89 368.639 1769.71 366.836 1777.96C365.034 1786.2 364.166 1793.87 364.602 1800.63C365.039 1807.38 366.816 1813.23 370.567 1817.79C374.317 1822.36 380.06 1825.66 388.233 1827.28C396.406 1828.9 403.016 1828.05 408.232 1825.29C413.448 1822.53 417.244 1817.86 420.122 1811.87C423 1805.88 424.959 1798.56 427.088 1790.49C429.216 1782.41 431.605 1773.59 435.379 1764.42C439.153 1755.25 444.916 1746.39 450.404 1737.98C455.893 1729.57 461.013 1721.62 463.772 1714.55C466.531 1707.49 466.928 1701.32 463.696 1696.45C460.464 1691.59 453.668 1688.06 442.254 1685.99Z" fill="#E1D6B9"/>
<path d="M470.261 1713.39C468.245 1720.24 464.361 1727.88 459.822 1736.05C454.634 1745.38 448.661 1755.39 444.324 1765.96C439.988 1776.53 436.981 1786.58 434.098 1795.75C431.216 1804.91 428.337 1813.18 424.353 1819.97C420.369 1826.75 415.281 1832.04 408.826 1835.24C402.371 1838.44 394.599 1839.55 385.591 1838.04C376.583 1836.53 369.912 1832.84 365.312 1827.53C360.711 1822.21 358.157 1815.28 357.129 1807.25C356.101 1799.22 356.559 1790.11 358.214 1780.4C359.868 1770.68 362.787 1760.38 366.931 1749.84C371.075 1739.3 375.354 1729.3 379.671 1720.21C383.988 1711.11 388.294 1702.93 393.377 1696.32C395.31 1693.81 397.38 1691.54 399.614 1689.52C404.124 1685.44 416.762 1688.7 411.335 1691.85C406.306 1694.76 404.668 1698.61 401.256 1703.78C397.098 1710.09 394.133 1718.23 390.79 1726.03C387.447 1733.83 381.278 1741.19 377.995 1749.32C374.711 1757.45 372.209 1765.33 370.617 1772.86C369.024 1780.39 368.27 1787.55 368.687 1793.92C369.104 1800.28 370.745 1805.83 374.19 1810.09C377.636 1814.35 382.902 1817.31 390.17 1818.74C397.437 1820.16 403.169 1819.37 407.489 1816.76C411.808 1814.14 412.131 1806.79 414.177 1801.25C416.223 1795.7 419.433 1788.91 421.262 1781.78C423.091 1774.64 426.152 1770.07 430.558 1762.21C434.963 1754.35 441.728 1746.63 447.935 1738.65C454.143 1730.67 459.144 1722.94 461.797 1716.14C462.129 1715.29 462.428 1714.45 462.686 1713.63C463.35 1711.52 463.824 1709.51 463.882 1707.59C463.949 1705.39 472.591 1704.73 471.008 1710.51C470.751 1711.44 470.549 1712.41 470.261 1713.39Z" fill="#394655"/>
<path d="M1335.84 1142.72C1333.46 1188.58 1332.24 1234.14 1329.87 1278.76C1327.5 1323.39 1323.97 1367.08 1316.95 1409.18C1309.92 1451.28 1299.39 1491.77 1283.05 1529.99C1266.71 1568.2 1244.55 1604.13 1214.34 1637.13C1176.23 1678.76 1124.37 1712.37 1062.79 1737.22C1001.22 1762.06 929.923 1778.14 852.925 1784.58C775.926 1791.02 693.202 1787.82 608.968 1773.89C524.733 1759.96 438.98 1735.29 356.368 1698.6C332.476 1687.99 308.377 1672.1 285.435 1652.91C262.493 1633.72 240.706 1611.24 221.429 1587.47C202.153 1563.69 185.387 1538.61 172.483 1514.21C159.579 1489.82 150.538 1466.1 146.694 1445.04C138.661 1401.03 136.306 1361.21 136.929 1323.7C137.552 1286.19 141.148 1251.01 145.044 1216.3C148.94 1181.58 153.137 1147.33 155.015 1111.68C156.893 1076.02 156.459 1038.96 151.111 998.556C146.854 966.401 142.052 935.27 137.564 904.058C133.075 872.846 128.899 841.552 125.904 809.077C122.909 776.602 121.095 742.947 121.341 707.011C121.588 671.076 123.896 632.862 129.152 591.262C132.678 563.347 138.151 533.279 145.996 502.836C153.84 472.393 164.057 441.576 177.063 412.188C190.069 382.799 205.866 354.841 224.857 330.136C243.848 305.431 266.036 283.982 291.784 267.615C325.514 246.174 357.265 227.934 388.375 212.843C419.485 197.753 449.955 185.814 481.081 176.979C512.207 168.144 543.99 162.414 577.683 159.738C611.376 157.061 646.979 157.437 685.699 160.805C740.842 165.601 795.619 170.501 848.988 177.327C902.357 184.154 954.319 192.908 1003.75 205.398C1053.17 217.888 1100.06 234.115 1143.21 255.859C1186.35 277.603 1225.73 304.868 1260.14 339.367C1284.69 363.991 1304.98 392.288 1321.35 423.182C1337.72 454.077 1350.19 487.568 1359.15 522.598C1368.11 557.628 1373.58 594.197 1375.97 631.283C1378.35 668.368 1377.66 705.972 1374.28 743.111C1371.82 770.037 1369.21 796.249 1366.54 821.809C1363.87 847.368 1361.15 872.276 1358.49 896.59C1355.82 920.903 1353.2 944.622 1350.74 967.803C1348.27 990.983 1345.95 1013.62 1343.88 1035.78C1343.01 1045.01 1342.19 1054.16 1341.41 1063.23C1340.63 1072.29 1339.9 1081.28 1339.23 1090.19C1338.55 1099.1 1337.92 1107.93 1337.36 1116.68C1336.79 1125.44 1336.28 1134.12 1335.84 1142.72Z" fill="#394655"/>
<path d="M1310.09 1312.37C1307.88 1354.61 1302.4 1396.67 1292.45 1437.16C1282.49 1477.65 1268.06 1516.57 1247.95 1552.47C1227.83 1588.38 1202.03 1621.27 1169.39 1649.71C1136.74 1678.15 1097.27 1702.13 1049.86 1720.26C1005.82 1737.11 955.745 1749.62 901.632 1757.26C847.518 1764.89 789.356 1767.64 729.163 1764.89C668.971 1762.14 606.743 1753.87 544.637 1739.38C482.532 1724.9 420.549 1704.18 361.03 1676.48C338.375 1665.94 315.586 1650.22 293.969 1631.34C272.352 1612.45 251.905 1590.41 233.923 1567.2C215.941 1544 200.423 1519.63 188.659 1496.11C176.894 1472.58 168.884 1449.88 165.899 1430.01C159.616 1388.2 158.018 1349.79 158.827 1313.3C159.637 1276.82 162.852 1242.26 166.225 1208.13C169.598 1174 173.13 1140.31 174.618 1105.55C176.107 1070.79 175.557 1034.96 170.776 996.521C166.785 964.432 162.441 934.242 158.409 904.416C154.376 874.591 150.655 845.132 147.924 814.512C145.193 783.892 143.453 752.11 143.397 717.634C143.34 683.158 144.968 645.989 148.982 604.572C151.605 577.505 156.209 548.179 163.223 518.404C170.238 488.629 179.663 458.404 191.92 429.564C204.177 400.723 219.267 373.268 237.594 349.053C255.921 324.838 277.488 303.865 302.657 287.99C334.542 267.88 364.251 250.446 393.2 235.761C422.15 221.077 450.339 209.142 479.143 200.035C507.947 190.929 537.366 184.651 568.731 181.277C600.096 177.903 633.407 177.433 669.946 179.933C727.842 183.893 785.908 188.313 842.55 195.241C899.193 202.17 954.417 211.606 1006.55 225.58C1058.68 239.554 1107.72 258.068 1151.9 283.114C1196.08 308.159 1235.38 339.74 1268.06 379.754C1297.94 416.337 1317.97 458.935 1330.93 504.809C1343.9 550.683 1349.82 599.827 1351.55 649.626C1353.29 699.425 1350.86 749.882 1346.96 798.519C1343.05 847.157 1337.67 893.984 1333.14 936.571C1332.22 945.189 1331.35 953.724 1330.53 962.181C1329.7 970.639 1328.92 979.02 1328.19 987.328C1327.45 995.636 1326.75 1003.87 1326.09 1012.04C1325.43 1020.21 1324.8 1028.31 1324.21 1036.35C1322.39 1061.07 1320.9 1085.2 1319.59 1108.87C1318.29 1132.53 1317.19 1155.72 1316.17 1178.56C1315.14 1201.4 1314.2 1223.9 1313.22 1246.16C1312.25 1268.42 1311.24 1290.45 1310.09 1312.37Z" fill="#96D6FF"/>
<path d="M447.947 190.469C451.683 205.017 449.488 219.632 443.889 232.7C438.291 245.769 429.577 257.266 419.591 266.487C409.604 275.708 398.225 282.729 384.981 287.059C371.737 291.389 355.151 295.295 339.697 293.074C324.244 290.852 313.316 282.35 304.296 273.342C295.277 264.334 285.708 253.16 270.035 242.913C254.364 232.666 239.192 222.113 232.546 210.762C225.9 199.41 221.513 187.628 219.858 175.778C218.204 163.929 219.426 153.101 222.99 143.372C226.555 133.643 232.462 125.015 240.3 117.74C248.139 110.466 257.907 104.545 269.301 100.391C280.694 96.2377 293.707 93.8535 308.187 93.7914C322.667 93.7294 337.276 96.0058 351.473 100.338C365.671 104.67 379.468 111.059 391.967 119.2C404.466 127.341 415.645 137.24 424.32 148.547C432.995 159.855 444.211 175.921 447.947 190.469Z" fill="#96D6FF"/>
<path d="M295.941 86.8276C284.763 87.9883 274.475 90.4779 265.148 94.037C252.71 98.7823 242.002 105.431 233.357 113.518C224.711 121.604 218.126 131.107 214.077 141.787C210.028 152.467 208.518 164.297 210.094 177.202C211.669 190.107 216.191 202.932 223.202 215.233C230.213 227.534 243.875 239.28 261.145 249.933C278.415 260.585 289.074 272.507 298.776 282.052C308.445 291.564 304.671 289.275 322.393 289.291C324.435 289.29 324.637 283.436 322.855 283.112C307.202 280.425 314.589 278.518 305.13 271.32C296.309 262.54 286.956 251.645 271.631 241.66C256.307 231.675 241.472 221.388 234.96 210.323C228.448 199.258 224.129 187.766 222.495 176.212C220.859 164.659 222.055 154.11 225.533 144.619C229.01 135.127 234.774 126.688 242.442 119.585C250.11 112.481 259.657 106.706 270.81 102.641C276.387 100.61 282.386 99.0077 288.736 97.9053C295.086 96.803 301.813 96.1906 308.897 96.1473C323.067 96.0734 337.336 98.2899 351.212 102.508C365.088 106.727 378.581 112.965 390.78 120.906C402.978 128.848 413.87 138.494 422.334 149.524C430.798 160.555 441.75 176.214 445.42 190.397C448.434 202.044 451.972 202.107 447.576 214.767C446.756 217.124 458.764 216.422 461.157 210.694C465.617 200.001 460.519 200.206 457.306 189.083C452.961 174.042 442.338 156.398 432.956 144.174C423.575 131.951 411.463 121.287 397.953 112.578C384.442 103.87 369.563 97.1005 354.237 92.587C338.91 88.0739 323.107 85.8066 307.421 86.1203C303.499 86.1985 299.667 86.4443 295.941 86.8276Z" fill="#394655"/>
<path fill-rule="evenodd" clip-rule="evenodd" d="M301.601 160.431C295.888 162.585 290.708 166.888 287.48 174.502C285.147 180.003 284.854 186.69 286.386 194.856C287.405 200.282 289.229 206.362 291.797 213.181C292.71 215.605 298.365 220.572 302.021 222.927C307.883 226.704 315.221 230.998 316.015 229.941C316.568 229.204 306.927 225.637 301.87 220.468C297.653 216.156 295.768 211.346 294.225 203.744C291.919 192.378 292.907 185.082 295.302 179.432C298.803 171.177 304.712 167.505 311.272 166.288C317.832 165.071 324.89 166.494 329.989 168.174C340.865 171.758 355.329 177.983 371.136 193.159C374.066 195.973 376.039 194.315 373.076 191.581C356.515 176.298 342.112 165.97 329.322 161.67C323.421 159.687 315.316 157.828 307.438 158.955C305.469 159.237 303.505 159.713 301.601 160.431Z" fill="#394655"/>
<path d="M988.234 213.629C988.082 228.648 993.705 242.316 1002.26 253.67C1010.82 265.024 1022.03 274.107 1033.93 280.676C1045.83 287.246 1058.56 291.347 1072.45 292.389C1086.35 293.431 1103.39 293.263 1117.86 287.416C1132.34 281.568 1140.92 270.703 1147.52 259.802C1154.13 248.901 1160.75 235.765 1173.52 222.072C1186.29 208.379 1198.5 194.509 1202.24 181.899C1205.98 169.289 1207.43 156.8 1206.2 144.898C1204.98 132.996 1201.21 122.773 1195.42 114.177C1189.63 105.581 1181.84 98.613 1172.49 93.4206C1163.14 88.2285 1152.24 84.812 1140.18 83.499C1128.12 82.1863 1114.92 82.9784 1100.84 86.3758C1086.77 89.7733 1073.13 95.4723 1060.38 103.069C1047.62 110.667 1035.75 120.165 1025.56 131.055C1015.37 141.946 1006.88 154.227 1001.16 167.279C995.437 180.331 988.385 198.611 988.234 213.629Z" fill="#96D6FF"/>
<path d="M1111.07 76.6894C1122.2 75.1473 1132.79 75.1083 1142.7 76.337C1155.91 77.975 1167.89 81.8746 1178.22 87.6626C1188.55 93.4505 1197.21 101.106 1203.7 110.51C1210.18 119.914 1214.47 131.042 1216.03 143.949C1217.58 156.857 1216.25 170.391 1212.39 184.01C1208.52 197.629 1198.06 212.297 1183.83 226.766C1169.61 241.234 1162.11 255.356 1154.97 266.942C1147.85 278.488 1150.97 275.363 1133.76 279.61C1131.78 280.098 1130.19 274.462 1131.84 273.721C1146.4 267.373 1138.77 267.286 1146.23 258.038C1152.7 247.405 1159.18 234.592 1171.67 221.236C1184.17 207.881 1196.12 194.349 1199.79 182.049C1203.47 169.749 1204.92 157.559 1203.75 145.949C1202.58 134.339 1198.89 124.381 1193.25 115.995C1187.6 107.609 1179.99 100.791 1170.85 95.7236C1161.7 90.6567 1151.05 87.3281 1139.25 86.0442C1133.35 85.4031 1127.14 85.2801 1120.71 85.7261C1114.28 86.172 1107.61 87.1835 1100.72 88.8333C1086.94 92.1451 1073.61 97.7047 1061.15 105.114C1048.68 112.524 1037.07 121.805 1027.12 132.429C1017.18 143.053 1008.9 155.021 1003.32 167.754C997.738 180.486 990.845 198.307 990.669 212.957C990.526 224.987 987.105 225.892 994.399 237.136C995.759 239.229 983.931 241.415 980.238 236.424C973.353 227.105 978.352 226.087 978.814 214.518C979.439 198.875 985.539 179.205 991.728 165.095C997.917 150.985 1007.13 137.737 1018.17 126.054C1029.21 114.371 1042.04 104.246 1055.84 96.2028C1069.64 88.1604 1084.45 82.1849 1099.75 78.7438C1103.58 77.8833 1107.36 77.207 1111.07 76.6894Z" fill="#394655"/>
<path fill-rule="evenodd" clip-rule="evenodd" d="M1123.16 149.514C1129.22 150.242 1135.28 153.183 1140.24 159.805C1143.82 164.591 1145.7 171.014 1146.16 179.309C1146.47 184.822 1146.15 191.162 1145.29 198.397C1144.98 200.968 1140.68 207.141 1137.69 210.302C1132.9 215.369 1126.8 221.291 1125.78 220.455C1125.06 219.871 1133.57 214.105 1137.25 207.878C1140.31 202.684 1140.99 197.563 1140.67 189.812C1140.2 178.224 1137.5 171.376 1133.82 166.461C1128.45 159.281 1121.83 157.126 1115.17 157.511C1108.51 157.896 1102 160.963 1097.45 163.812C1087.74 169.889 1075.18 179.388 1063.46 197.9C1061.29 201.331 1058.98 200.192 1061.2 196.83C1073.63 178.034 1085.15 164.566 1096.54 157.337C1101.8 154.002 1109.22 150.261 1117.14 149.475C1119.12 149.278 1121.14 149.272 1123.16 149.514Z" fill="#394655"/>
<g opacity="0.06">
<path d="M792.807 1767.73C912.932 1756.97 1008.88 1729.22 1076.17 1685.78C1174.67 1622.2 1232.73 1522.71 1253.09 1382.59C1256.39 1359.9 1260.42 1305.02 1263.05 1247.04C1269.53 1104.43 1275.07 1019.97 1283.07 942.054C1286.98 904.001 1292.06 854.441 1294.37 831.921C1300.49 772.086 1302.73 657.07 1298.64 612.892C1286.74 484.231 1245.49 398.303 1163.39 331.144C1136.97 309.532 1094.75 283.49 1088.7 285.072C1080.95 287.098 1079.74 281.566 1086.43 274.736C1089.77 271.331 1098.85 259.015 1106.6 247.366C1114.36 235.718 1126.95 218.688 1134.58 209.522C1150.41 190.517 1156.1 171.604 1152.92 148.514C1145.11 91.6917 1070.57 73.8969 1008.76 114.096C967.061 141.218 939.309 190.194 943.367 229.505C944.855 243.915 944.638 244.543 938.162 244.543C930.755 244.543 924.627 236.131 927.183 229.471C929.181 224.265 927.519 223.741 881.778 215.158C839.461 207.217 773.842 198.745 701.013 191.818C630.717 185.132 523.638 185.032 489.123 191.621C448.626 199.351 417.168 209.381 412.495 216.051C410.221 219.296 406.065 221.951 403.258 221.951C399.232 221.951 398.154 219.687 398.154 211.227C398.154 187.772 371.824 147.974 344.028 129.416C318.57 112.419 298.657 105.746 268.322 104.047C225.677 101.659 195.586 115.305 181.595 143.377C173.052 160.517 172.212 176.131 178.779 195.731C185.226 214.975 193.663 224.879 218.661 242.548C230.742 251.087 246.934 264.56 254.643 272.488C262.351 280.415 270.295 286.902 272.295 286.902C274.296 286.902 275.932 288.905 275.932 291.353C275.932 294.781 273.399 295.622 264.916 295.01C251.067 294.01 238.813 302.111 211.792 330.129C118.425 426.939 78.5929 612.778 102.432 840.358C104.789 862.86 110.612 908.608 115.372 942.02C128.107 1031.41 129.149 1098.4 119.44 1203.56C108.907 1317.66 109.792 1401.81 122.051 1451.77C127.819 1475.28 153.332 1525.9 174.711 1556.26C197.341 1588.39 251.241 1642.62 278.282 1660.46C342.956 1703.13 474.439 1744.64 597.92 1761.39C637.288 1766.72 759.598 1770.7 792.807 1767.73ZM254.052 229.992C242.173 222.652 236.39 209.96 236.39 191.23C236.39 179.109 237.534 176.307 245.08 169.959C260.799 156.735 282.694 161.667 312.17 185.071C328.138 197.749 330.579 205.078 314.845 193.101C301.747 183.13 284.471 174.742 272.352 172.469C263.248 170.761 260.923 171.572 253.418 179.076C239.916 192.576 243.436 216.938 260.755 229.844C271.317 237.715 266.714 237.817 254.052 229.992ZM1083.53 216.573C1095.41 199.903 1088.94 169.299 1072.43 164.061C1060.95 160.417 1034.49 177.41 1019.68 197.943C1016.32 202.599 1012.66 205.491 1011.53 204.368C1008.12 200.955 1033.47 170.651 1046.86 162.152C1072.29 145.997 1094.54 154.656 1097.14 181.723C1098.94 200.376 1096.89 208.017 1087.63 217.273C1077.84 227.066 1076.25 226.796 1083.53 216.573Z" fill="#E7E7E7" stroke="#9D9D9D" stroke-width="0.494975" stroke-linecap="round"/>
<path d="M261.811 104.905C299.365 105.078 315.3 109.894 344.679 129.928C373.546 149.612 403.139 197.43 398.181 216.384C396.163 224.099 406.982 223.915 412.427 216.142C413.406 214.744 415.188 213.322 417.701 211.867C305.771 303.601 171.414 522.304 198.917 670.063C258.537 990.368 147.242 1416.88 344.38 1552.54C690.429 1790.68 855.316 1700.54 1039.2 1648.56C1125.94 1624.03 1196.64 1539.55 1233.48 1472.34C1204.99 1564.21 1151.16 1637.48 1076.66 1685.42C1010.24 1728.16 918.065 1755.59 804.103 1766.51C760.875 1770.65 645.154 1767.77 597.916 1761.38C473.3 1744.51 341.936 1702.73 277.344 1659.44C248.672 1640.22 197.929 1589.21 174.707 1556.25C153.334 1525.92 127.817 1475.3 122.046 1451.78C109.795 1401.85 108.909 1317.7 119.425 1203.56C129.456 1094.68 128.222 1032.56 114.019 930.754C108.493 891.149 102.355 842.863 100.374 823.449C95.7256 777.889 95.742 662.607 100.404 617.3C113.434 490.696 151.448 392.703 211.794 330.132C238.815 302.114 251.066 294.009 264.914 295.008C273.397 295.621 275.93 294.778 275.93 291.35C275.93 288.902 274.295 286.904 272.295 286.904C270.294 286.904 262.349 280.433 254.64 272.528C246.931 264.623 232.361 252.326 222.263 245.205C195.971 226.662 191.482 222.189 183.615 206.735C164.233 168.661 177.198 130.681 216.209 111.277C227.695 105.564 233.363 104.774 261.811 104.905ZM266.804 163.242C258.384 162.794 250.977 164.994 245.076 169.958C237.531 176.306 236.393 179.107 236.393 191.228C236.393 209.959 242.169 222.655 254.048 229.995C266.71 237.819 271.319 237.717 260.758 229.847C243.439 216.941 239.914 192.576 253.416 179.076C260.921 171.572 263.246 170.762 272.351 172.469C284.47 174.742 301.747 183.13 314.845 193.1C328.663 203.619 328.868 198.766 315.103 186.985C297.695 172.087 280.837 163.988 266.804 163.242Z" fill="black" stroke="#9D9D9D" stroke-width="0.494975" stroke-linecap="round"/>
<path d="M779.376 982.512C714.64 982.512 662.161 955.645 662.161 922.504C662.161 889.362 714.64 862.495 779.376 862.495C844.112 862.495 896.591 889.362 896.591 922.504C896.591 955.645 844.112 982.512 779.376 982.512Z" fill="black"/>
<path d="M759.273 957.162H800.215C816.76 957.162 830.173 970.572 830.173 987.114V992.106C830.173 1008.65 816.76 1022.06 800.215 1022.06H759.273C742.727 1022.06 729.315 1008.65 729.315 992.106V987.114C729.315 970.572 742.727 957.162 759.273 957.162Z" fill="black"/>
</g>
<path d="M75.6015 623.572C76.762 662.484 86.4791 700.033 102.974 734.872C119.47 769.711 142.736 801.85 170.96 829.693C199.184 857.536 232.359 881.081 268.754 898.418C305.148 915.755 344.765 926.873 386 929.664C427.234 932.454 466.2 926.612 501.444 913.417C536.688 900.222 568.207 879.68 594.449 853.348C620.691 827.015 641.651 794.895 655.746 758.761C669.841 722.626 677.064 682.478 675.879 640.274C674.695 598.07 665.224 557.842 649.158 521.529C633.093 485.217 610.44 452.826 582.846 426.022C555.252 399.217 522.717 378 486.783 363.694C450.848 349.389 411.506 341.982 370.255 342.554C329.004 343.127 289.738 351.582 254.041 366.108C218.344 380.633 186.224 401.24 159.39 426.469C132.555 451.698 111.012 481.558 96.4815 514.799C81.9513 548.041 74.4411 584.661 75.6015 623.572Z" fill="#394655"/>
<path d="M95.9016 614.683C95.899 651.298 103.847 687.223 118.331 720.978C132.816 754.733 153.848 786.319 179.92 813.839C205.993 841.359 237.106 864.787 271.567 882.007C306.028 899.227 343.823 910.225 383.216 913.002C422.608 915.78 459.86 910.072 493.499 897.379C527.138 884.686 557.175 865.013 582.195 839.979C607.216 814.945 627.221 784.549 640.77 750.537C654.319 716.526 661.407 678.9 660.591 639.545C659.774 600.19 651.133 562.869 636.274 529.284C621.415 495.698 600.344 465.849 574.633 441.116C548.922 416.383 518.573 396.761 485.046 383.318C451.518 369.875 414.805 362.592 376.274 362.394C337.743 362.196 301.03 369.065 267.567 381.477C234.103 393.889 203.895 411.859 178.475 434.256C153.055 456.653 132.425 483.486 118.139 513.84C103.853 544.193 95.9054 578.069 95.9016 614.683Z" fill="white"/>
<path d="M302.503 683.323C257.673 683.323 221.331 646.987 221.331 602.166C221.331 557.344 257.673 521.008 302.503 521.008C347.333 521.008 383.675 557.344 383.675 602.166C383.675 646.987 347.333 683.323 302.503 683.323Z" fill="#394455"/>
<path d="M338.432 604.826C316.384 604.826 298.511 586.957 298.511 564.913C298.511 542.87 316.384 525 338.432 525C360.479 525 378.352 542.87 378.352 564.913C378.352 586.957 360.479 604.826 338.432 604.826Z" fill="white"/>
<path d="M882.638 615.377C883.798 654.288 893.516 691.837 910.011 726.677C926.506 761.516 949.773 793.655 977.997 821.498C1006.22 849.341 1039.4 872.885 1075.79 890.222C1112.18 907.559 1151.8 918.678 1193.04 921.468C1234.27 924.258 1273.24 918.416 1308.48 905.222C1343.72 892.027 1375.24 871.485 1401.49 845.152C1427.73 818.819 1448.69 786.699 1462.78 750.565C1476.88 714.431 1484.1 674.283 1482.92 632.078C1481.73 589.874 1472.26 549.646 1456.19 513.334C1440.13 477.021 1417.48 444.63 1389.88 417.826C1362.29 391.022 1329.75 369.804 1293.82 355.499C1257.88 341.193 1218.54 333.786 1177.29 334.359C1136.04 334.932 1096.77 343.386 1061.08 357.912C1025.38 372.438 993.261 393.044 966.426 418.274C939.592 443.503 918.048 473.363 903.518 506.604C888.988 539.845 881.478 576.465 882.638 615.377Z" fill="#394655"/>
<path d="M902.938 606.488C902.935 643.102 910.883 679.027 925.368 712.782C939.852 746.538 960.884 778.124 986.957 805.643C1013.03 833.163 1044.14 856.591 1078.6 873.811C1113.06 891.031 1150.86 902.029 1190.25 904.807C1229.64 907.584 1266.9 901.876 1300.54 889.183C1334.17 876.491 1364.21 856.817 1389.23 831.783C1414.25 806.749 1434.26 776.353 1447.81 742.341C1461.36 708.33 1468.44 670.704 1467.63 631.349C1466.81 591.994 1458.17 554.674 1443.31 521.088C1428.45 487.502 1407.38 457.653 1381.67 432.92C1355.96 408.187 1325.61 388.565 1292.08 375.122C1258.55 361.679 1221.84 354.396 1183.31 354.198C1144.78 354.001 1108.07 360.869 1074.6 373.281C1041.14 385.693 1010.93 403.663 985.512 426.06C960.091 448.457 939.461 475.291 925.175 505.644C910.889 535.997 902.942 569.873 902.938 606.488Z" fill="white"/>
<path d="M1284.75 686.231C1239.92 686.231 1203.58 649.895 1203.58 605.073C1203.58 560.251 1239.92 523.916 1284.75 523.916C1329.58 523.916 1365.93 560.251 1365.93 605.073C1365.93 649.895 1329.58 686.231 1284.75 686.231Z" fill="#394455"/>
<path d="M1320.68 607.734C1298.64 607.734 1280.76 589.864 1280.76 567.821C1280.76 545.777 1298.64 527.907 1320.68 527.907C1342.73 527.907 1360.6 545.777 1360.6 567.821C1360.6 589.864 1342.73 607.734 1320.68 607.734Z" fill="white"/>
<g clip-path="url(#clip0_2001_284)">
<path d="M1202.44 1088.57H654.801V1718.9H1202.44V1088.57Z" fill="white"/>
<path d="M639.943 1068.45C619.121 1068.45 602.344 1084.19 602.344 1103.8V1699.76C602.344 1719.33 619.121 1735.12 639.943 1735.12H1176.69C1197.51 1735.12 1214.29 1719.33 1214.29 1699.76V1103.8C1214.29 1084.19 1197.51 1068.45 1176.69 1068.45H639.943ZM633.399 1099.78H1183.24V1703.04L631.257 1703.75L632.408 1097.73L633.399 1099.78Z" fill="#D24625"/>
<path d="M1068.57 1497.22H682.196V1537.1H1068.57V1497.22Z" fill="#D24625"/>
<path d="M1068.57 1591.23H682.196V1631.12H1068.57V1591.23Z" fill="#D24625"/>
<path d="M896.049 1299.71H1025.59C1025.59 1282.79 1022.24 1266.03 1015.73 1250.39C1009.22 1234.76 999.675 1220.55 987.646 1208.59C975.618 1196.62 961.337 1187.13 945.621 1180.65C929.904 1174.18 913.06 1170.84 896.049 1170.84V1299.71Z" fill="#D24625"/>
<path d="M877.639 1315.84V1186.97C852.021 1186.97 826.978 1194.53 805.677 1208.69C784.377 1222.85 767.775 1242.97 757.972 1266.52C748.168 1290.07 745.604 1315.98 750.602 1340.97C755.6 1365.97 767.937 1388.93 786.052 1406.95C804.167 1424.97 827.246 1437.24 852.373 1442.22C877.499 1447.19 903.543 1444.64 927.212 1434.89C950.88 1425.13 971.11 1408.62 985.344 1387.43C999.577 1366.24 1007.17 1341.32 1007.18 1315.84H877.639Z" fill="#D24625"/>
<path d="M777.46 1849.06V974.449L247.652 1061.89V1761.58L777.46 1849.06Z" fill="url(#paint0_linear_2001_284)"/>
<path d="M422.661 1560.13V1267.08L524.633 1261.43C557.637 1260.38 573.021 1271.51 588.251 1293.17C601.538 1312.11 605.504 1339.36 603.442 1363.19C599.039 1413.54 567.746 1457.02 520.666 1459.39H477.712V1405.26H506.348C526.873 1404.36 542.261 1382.1 541.278 1358.98C540.395 1332.89 526.614 1317.43 507.959 1316.77L477.712 1316.95L477.752 1563.4L422.661 1560.13Z" fill="white"/>
</g>
<path d="M856.096 910.44L829.017 910.793L813.155 910.443C808.095 910.331 803.948 912.724 801.183 916.252C798.418 919.781 797.512 924.667 797.519 929.999L797.557 960.183L795.934 990.475C795.642 995.93 797.774 1000.74 800.925 1004.24C804.076 1007.74 808.423 1009.73 813.224 1009.85L829.234 1010.23L860.684 1009.49C866.717 1009.35 872 1007 875.602 1003.39C879.203 999.776 880.933 994.864 880.651 989.504L879.072 959.445L876.979 929.434C876.607 924.092 873.529 919.307 869.682 915.881C865.835 912.454 860.98 910.41 856.096 910.44Z" fill="#2E3436"/>
<path d="M852.461 919.577L830.363 919.874L819.755 919.442C815.726 919.278 812.319 921.299 809.953 924.187C807.588 927.075 806.541 931.078 806.416 935.447L805.705 960.126L803.929 984.869C803.612 989.286 805.149 993.263 807.639 996.122C810.13 998.98 813.67 1000.53 817.666 1000.68L828.558 1001.11L853.556 1000.57C858.29 1000.47 862.533 998.56 865.508 995.612C868.483 992.663 870.08 988.647 870.002 984.259L869.566 959.679L868.708 935.129C868.557 930.757 866.294 926.833 863.306 924.027C860.319 921.221 856.45 919.523 852.461 919.577Z" fill="white"/>
<path d="M713.599 897.936C714.355 907.612 720.316 916.366 728.79 924.248C737.264 932.131 748.967 939.118 762.522 944.841C776.076 950.564 791.366 954.966 806.854 957.317C822.341 959.669 838.032 959.93 853.454 958.071C868.876 956.212 882.688 952.511 894.678 947.939C906.668 943.367 916.742 937.942 924.676 931.925C932.611 925.908 938.478 919.242 942.181 911.803C945.885 904.364 947.422 896.128 946.078 887.254C944.735 878.38 940.574 869.725 934.151 861.774C927.728 853.823 919.09 846.585 908.943 840.561C898.797 834.537 887.158 829.732 874.311 826.582C861.463 823.432 847.392 821.934 831.998 822.442C816.604 822.95 801.242 825.4 786.656 829.45C772.071 833.5 758.325 839.177 746.867 846.109C735.41 853.042 725.994 861.03 720.498 870.047C714.868 879.283 712.956 889.691 713.599 897.936Z" fill="#394655"/>
<path d="M746.191 895.763C747.512 903.449 752.01 910.627 758.916 917.059C765.822 923.491 775.128 929.188 785.702 933.734C796.277 938.28 808.069 941.641 820.091 943.407C832.114 945.172 844.38 945.335 856.442 943.863C868.504 942.391 879.275 939.476 888.623 935.75C897.97 932.024 905.857 927.492 912.044 922.436C918.231 917.38 922.734 911.779 925.389 905.678C928.044 899.577 928.859 892.961 927.476 885.953C926.093 878.944 922.622 872.212 917.5 866.07C912.378 859.927 905.615 854.383 897.649 849.794C889.684 845.205 880.524 841.573 870.425 839.225C860.326 836.876 849.285 835.81 837.331 836.305C825.378 836.8 813.586 838.802 802.447 842.02C791.309 845.237 780.841 849.677 772 855.062C763.159 860.447 755.981 866.779 751.409 873.69C746.837 880.6 744.869 888.077 746.191 895.763Z" fill="#E1D0CB"/>
<path d="M772.922 846.238C774.85 851.746 779.04 856.637 784.838 860.765C790.636 864.893 798.018 868.266 806.028 870.852C814.037 873.438 822.641 875.246 831.061 876.208C839.48 877.171 847.715 877.283 855.431 876.43C863.147 875.577 869.66 873.842 875.172 871.427C880.684 869.012 885.194 865.917 888.748 862.274C892.302 858.631 894.903 854.434 896.414 849.785C897.924 845.135 898.34 840.028 897.316 834.631C896.292 829.233 893.903 824.059 890.289 819.384C886.676 814.709 881.84 810.535 875.995 807.148C870.15 803.762 863.296 801.166 855.683 799.624C848.071 798.082 839.698 797.595 830.872 798.384C822.046 799.173 813.601 801.159 805.966 804.049C798.33 806.939 791.504 810.733 785.977 815.133C780.45 819.533 776.224 824.543 773.858 829.842C771.491 835.142 770.995 840.73 772.922 846.238Z" fill="#394655"/>
<path d="M182.49 1094.12C175.086 1106.22 171.907 1116.7 172.127 1125.99C172.346 1135.29 175.923 1143.43 181.418 1151.37C186.913 1159.32 194.259 1167.13 202.269 1175.22C210.279 1183.31 219.006 1191.58 227.837 1199.76C236.668 1207.95 245.492 1215.03 254.106 1220.73C262.72 1226.43 271.085 1230.8 278.985 1233.29C286.885 1235.77 294.337 1236.33 301.205 1234.07C308.073 1231.8 314.368 1226.71 319.825 1218.1C325.282 1209.5 327.234 1201.58 326.391 1194.42C325.548 1187.25 321.898 1180.86 316.331 1174.93C310.763 1169 303.286 1163.54 295.013 1157.55C286.741 1151.55 277.725 1144.93 268.933 1136.58C260.141 1128.23 252.576 1117.75 245.408 1107.77C238.24 1097.8 231.433 1088.45 224.587 1082.19C217.741 1075.92 210.878 1072.74 203.903 1074.28C196.929 1075.82 189.895 1082.01 182.49 1094.12Z" fill="#E1D6B9"/>
<path d="M226.126 1074.27C233.05 1079.6 240.05 1087.4 247.365 1096.18C255.724 1106.22 264.501 1117.45 274.644 1127.06C284.786 1136.67 294.927 1144.54 304.112 1151.87C313.297 1159.21 321.457 1166.14 327.439 1173.68C333.421 1181.22 337.211 1189.36 338.009 1198.13C338.808 1206.91 336.641 1216.26 330.937 1225.87C325.234 1235.47 318.079 1241.45 309.987 1244.35C301.896 1247.26 292.853 1247.11 283.241 1244.74C273.629 1242.36 263.436 1237.82 253.085 1231.64C242.733 1225.47 232.269 1217.59 222.075 1208.21C211.881 1198.83 202.36 1189.54 193.892 1180.6C185.425 1171.66 177.992 1163.14 172.7 1154.43C170.687 1151.11 169.007 1147.75 167.691 1144.31C165.033 1137.36 174.327 1124.39 175.522 1131.97C176.629 1138.99 179.668 1145.41 184.005 1151.68C189.29 1159.32 196.357 1166.84 204.061 1174.62C211.765 1182.4 220.159 1190.35 228.653 1198.22C237.147 1206.09 245.632 1212.91 253.917 1218.39C262.201 1223.87 270.248 1228.08 277.846 1230.47C285.445 1232.86 292.613 1233.39 299.219 1231.21C305.825 1229.04 311.878 1224.14 317.126 1215.86C322.375 1207.58 324.253 1199.97 323.442 1193.08C322.632 1186.18 319.124 1180.04 313.769 1174.34C308.414 1168.64 301.219 1163.38 293.263 1157.62C285.306 1151.85 276.637 1145.49 268.181 1137.45C259.725 1129.42 252.446 1119.34 245.552 1109.75C238.657 1100.16 232.111 1091.17 225.526 1085.14C224.703 1084.39 223.879 1083.68 223.055 1083.02C220.938 1081.33 218.854 1079.9 216.696 1078.99C214.208 1077.94 217.269 1067.79 223.164 1072.15C224.121 1072.85 225.138 1073.51 226.126 1074.27Z" fill="#394655"/>
<path d="M1300.91 1091.42C1308 1103.71 1310.9 1114.28 1310.44 1123.56C1309.98 1132.84 1306.19 1140.89 1300.49 1148.69C1294.79 1156.48 1287.25 1164.1 1279.03 1171.98C1270.81 1179.86 1261.87 1187.9 1252.83 1195.85C1243.79 1203.8 1234.78 1210.66 1226.02 1216.13C1217.26 1221.6 1208.79 1225.75 1200.82 1228.03C1192.86 1230.31 1185.4 1230.67 1178.59 1228.23C1171.78 1225.79 1165.62 1220.53 1160.39 1211.79C1155.16 1203.04 1153.42 1195.08 1154.45 1187.94C1155.48 1180.8 1159.29 1174.5 1165.01 1168.72C1170.73 1162.94 1178.35 1157.67 1186.78 1151.9C1195.2 1146.12 1204.39 1139.74 1213.39 1131.62C1222.4 1123.5 1230.24 1113.22 1237.66 1103.43C1245.09 1093.65 1252.13 1084.49 1259.14 1078.4C1266.15 1072.31 1273.09 1069.32 1280.02 1071.04C1286.96 1072.76 1293.83 1079.13 1300.91 1091.42Z" fill="#E1D6B9"/>
<path d="M1257.81 1070.45C1250.75 1075.59 1243.55 1083.2 1236.01 1091.79C1227.39 1101.61 1218.32 1112.61 1207.93 1121.95C1197.54 1131.3 1187.2 1138.9 1177.83 1145.99C1168.46 1153.08 1160.12 1159.8 1153.94 1167.18C1147.76 1174.56 1143.76 1182.6 1142.74 1191.35C1141.71 1200.1 1143.63 1209.51 1149.08 1219.26C1154.54 1229.01 1161.53 1235.17 1169.55 1238.29C1177.56 1241.4 1186.6 1241.48 1196.27 1239.36C1205.94 1237.24 1216.25 1232.97 1226.76 1227.06C1237.27 1221.16 1247.93 1213.56 1258.37 1204.45C1268.81 1195.34 1278.56 1186.29 1287.26 1177.58C1295.96 1168.86 1303.61 1160.54 1309.13 1151.96C1311.23 1148.7 1313 1145.38 1314.4 1141.98C1317.24 1135.11 1308.29 1121.89 1306.89 1129.44C1305.6 1136.43 1302.4 1142.77 1297.9 1148.93C1292.42 1156.42 1285.16 1163.75 1277.25 1171.33C1269.35 1178.91 1260.75 1186.64 1252.05 1194.29C1243.36 1201.94 1234.7 1208.53 1226.27 1213.79C1217.85 1219.05 1209.7 1223.05 1202.04 1225.24C1194.38 1227.43 1187.2 1227.77 1180.65 1225.43C1174.11 1223.08 1168.18 1218.03 1163.15 1209.62C1158.12 1201.21 1156.44 1193.55 1157.43 1186.68C1158.42 1179.81 1162.09 1173.76 1167.59 1168.19C1173.09 1162.63 1180.42 1157.57 1188.52 1152.01C1196.63 1146.46 1205.46 1140.32 1214.12 1132.51C1222.79 1124.7 1230.33 1114.81 1237.47 1105.4C1244.61 1095.99 1251.39 1087.18 1258.13 1081.33C1258.97 1080.59 1259.81 1079.91 1260.65 1079.27C1262.81 1077.64 1264.93 1076.26 1267.11 1075.41C1269.63 1074.42 1266.83 1064.2 1260.83 1068.4C1259.85 1069.08 1258.82 1069.71 1257.81 1070.45Z" fill="#394655"/>
<path d="M1815 1385.2C1806.47 1385.2 1798.57 1383.82 1791.32 1381.04C1784.17 1378.16 1777.93 1374.16 1772.6 1369.04C1767.37 1363.92 1763.27 1357.9 1760.28 1350.96C1757.4 1344.03 1755.96 1336.46 1755.96 1328.24C1755.96 1320.03 1757.4 1312.46 1760.28 1305.52C1763.27 1298.59 1767.43 1292.56 1772.76 1287.44C1778.09 1282.32 1784.33 1278.38 1791.48 1275.6C1798.73 1272.72 1806.63 1271.28 1815.16 1271.28C1823.69 1271.28 1831.48 1272.62 1838.52 1275.28C1845.67 1277.95 1851.75 1282 1856.76 1287.44L1849.4 1294.96C1844.71 1290.27 1839.53 1286.91 1833.88 1284.88C1828.23 1282.86 1822.15 1281.84 1815.64 1281.84C1808.71 1281.84 1802.31 1283.02 1796.44 1285.36C1790.68 1287.6 1785.61 1290.86 1781.24 1295.12C1776.97 1299.28 1773.61 1304.19 1771.16 1309.84C1768.81 1315.39 1767.64 1321.52 1767.64 1328.24C1767.64 1334.86 1768.81 1340.99 1771.16 1346.64C1773.61 1352.3 1776.97 1357.26 1781.24 1361.52C1785.61 1365.68 1790.68 1368.94 1796.44 1371.28C1802.31 1373.52 1808.65 1374.64 1815.48 1374.64C1821.88 1374.64 1827.91 1373.68 1833.56 1371.76C1839.32 1369.84 1844.6 1366.59 1849.4 1362L1856.12 1370.96C1850.79 1375.66 1844.55 1379.23 1837.4 1381.68C1830.25 1384.03 1822.79 1385.2 1815 1385.2ZM1844.76 1369.52V1328.24H1856.12V1370.96L1844.76 1369.52ZM1921.47 1385.04C1913.36 1385.04 1906.06 1383.23 1899.55 1379.6C1893.15 1375.87 1888.08 1370.8 1884.35 1364.4C1880.62 1357.9 1878.75 1350.48 1878.75 1342.16C1878.75 1333.74 1880.62 1326.32 1884.35 1319.92C1888.08 1313.52 1893.15 1308.51 1899.55 1304.88C1905.95 1301.26 1913.26 1299.44 1921.47 1299.44C1929.79 1299.44 1937.15 1301.26 1943.55 1304.88C1950.06 1308.51 1955.12 1313.52 1958.75 1319.92C1962.48 1326.32 1964.35 1333.74 1964.35 1342.16C1964.35 1350.48 1962.48 1357.9 1958.75 1364.4C1955.12 1370.8 1950.06 1375.87 1943.55 1379.6C1937.04 1383.23 1929.68 1385.04 1921.47 1385.04ZM1921.47 1374.96C1927.55 1374.96 1932.94 1373.63 1937.63 1370.96C1942.32 1368.19 1946 1364.35 1948.67 1359.44C1951.44 1354.43 1952.83 1348.67 1952.83 1342.16C1952.83 1335.55 1951.44 1329.79 1948.67 1324.88C1946 1319.98 1942.32 1316.19 1937.63 1313.52C1932.94 1310.75 1927.6 1309.36 1921.63 1309.36C1915.66 1309.36 1910.32 1310.75 1905.63 1313.52C1900.94 1316.19 1897.2 1319.98 1894.43 1324.88C1891.66 1329.79 1890.27 1335.55 1890.27 1342.16C1890.27 1348.67 1891.66 1354.43 1894.43 1359.44C1897.2 1364.35 1900.94 1368.19 1905.63 1370.96C1910.32 1373.63 1915.6 1374.96 1921.47 1374.96ZM2029.42 1384.24V1265.52H2040.78V1384.24H2029.42ZM2072.39 1384.24V1300.24H2083.75V1384.24H2072.39ZM2078.15 1281.68C2075.8 1281.68 2073.83 1280.88 2072.23 1279.28C2070.63 1277.68 2069.83 1275.76 2069.83 1273.52C2069.83 1271.28 2070.63 1269.42 2072.23 1267.92C2073.83 1266.32 2075.8 1265.52 2078.15 1265.52C2080.49 1265.52 2082.47 1266.27 2084.07 1267.76C2085.67 1269.26 2086.47 1271.12 2086.47 1273.36C2086.47 1275.71 2085.67 1277.68 2084.07 1279.28C2082.57 1280.88 2080.6 1281.68 2078.15 1281.68ZM2158.72 1385.04C2151.36 1385.04 2144.74 1383.39 2138.88 1380.08C2133.01 1376.67 2128.37 1371.76 2124.96 1365.36C2121.54 1358.96 2119.84 1351.23 2119.84 1342.16C2119.84 1332.99 2121.54 1325.26 2124.96 1318.96C2128.48 1312.56 2133.17 1307.71 2139.04 1304.4C2144.9 1301.1 2151.46 1299.44 2158.72 1299.44C2166.72 1299.44 2173.86 1301.26 2180.16 1304.88C2186.56 1308.4 2191.57 1313.36 2195.2 1319.76C2198.82 1326.16 2200.64 1333.63 2200.64 1342.16C2200.64 1350.59 2198.82 1358.06 2195.2 1364.56C2191.57 1370.96 2186.56 1375.98 2180.16 1379.6C2173.86 1383.23 2166.72 1385.04 2158.72 1385.04ZM2115.36 1384.24V1265.52H2126.72V1325.04L2125.12 1342L2126.24 1358.96V1384.24H2115.36ZM2157.92 1374.96C2163.89 1374.96 2169.22 1373.63 2173.92 1370.96C2178.61 1368.19 2182.34 1364.35 2185.12 1359.44C2187.89 1354.43 2189.28 1348.67 2189.28 1342.16C2189.28 1335.55 2187.89 1329.79 2185.12 1324.88C2182.34 1319.98 2178.61 1316.19 2173.92 1313.52C2169.22 1310.75 2163.89 1309.36 2157.92 1309.36C2151.94 1309.36 2146.56 1310.75 2141.76 1313.52C2137.06 1316.19 2133.33 1319.98 2130.56 1324.88C2127.89 1329.79 2126.56 1335.55 2126.56 1342.16C2126.56 1348.67 2127.89 1354.43 2130.56 1359.44C2133.33 1364.35 2137.06 1368.19 2141.76 1370.96C2146.56 1373.63 2151.94 1374.96 2157.92 1374.96ZM2223.79 1384.24V1300.24H2234.67V1323.12L2233.55 1319.12C2235.9 1312.72 2239.85 1307.87 2245.39 1304.56C2250.94 1301.15 2257.82 1299.44 2266.03 1299.44V1310.48C2265.61 1310.48 2265.18 1310.48 2264.75 1310.48C2264.33 1310.38 2263.9 1310.32 2263.47 1310.32C2254.62 1310.32 2247.69 1313.04 2242.67 1318.48C2237.66 1323.82 2235.15 1331.44 2235.15 1341.36V1384.24H2223.79ZM2333.15 1384.24V1365.68L2332.67 1362.64V1331.6C2332.67 1324.46 2330.65 1318.96 2326.59 1315.12C2322.65 1311.28 2316.73 1309.36 2308.83 1309.36C2303.39 1309.36 2298.22 1310.27 2293.31 1312.08C2288.41 1313.9 2284.25 1316.3 2280.83 1319.28L2275.71 1310.8C2279.98 1307.18 2285.1 1304.4 2291.07 1302.48C2297.05 1300.46 2303.34 1299.44 2309.95 1299.44C2320.83 1299.44 2329.21 1302.16 2335.07 1307.6C2341.05 1312.94 2344.03 1321.1 2344.03 1332.08V1384.24H2333.15ZM2304.19 1385.04C2297.9 1385.04 2292.41 1384.03 2287.71 1382C2283.13 1379.87 2279.61 1376.99 2277.15 1373.36C2274.7 1369.63 2273.47 1365.36 2273.47 1360.56C2273.47 1356.19 2274.49 1352.24 2276.51 1348.72C2278.65 1345.1 2282.06 1342.22 2286.75 1340.08C2291.55 1337.84 2297.95 1336.72 2305.95 1336.72H2334.91V1345.2H2306.27C2298.17 1345.2 2292.51 1346.64 2289.31 1349.52C2286.22 1352.4 2284.67 1355.98 2284.67 1360.24C2284.67 1365.04 2286.54 1368.88 2290.27 1371.76C2294.01 1374.64 2299.23 1376.08 2305.95 1376.08C2312.35 1376.08 2317.85 1374.64 2322.43 1371.76C2327.13 1368.78 2330.54 1364.51 2332.67 1358.96L2335.23 1366.8C2333.1 1372.35 2329.37 1376.78 2324.03 1380.08C2318.81 1383.39 2312.19 1385.04 2304.19 1385.04ZM2374.89 1384.24V1300.24H2385.77V1323.12L2384.65 1319.12C2386.99 1312.72 2390.94 1307.87 2396.49 1304.56C2402.03 1301.15 2408.91 1299.44 2417.13 1299.44V1310.48C2416.7 1310.48 2416.27 1310.48 2415.85 1310.48C2415.42 1310.38 2414.99 1310.32 2414.57 1310.32C2405.71 1310.32 2398.78 1313.04 2393.77 1318.48C2388.75 1323.82 2386.25 1331.44 2386.25 1341.36V1384.24H2374.89ZM2442.09 1416.08C2438.14 1416.08 2434.36 1415.44 2430.73 1414.16C2427.21 1412.88 2424.17 1410.96 2421.61 1408.4L2426.89 1399.92C2429.02 1401.95 2431.32 1403.5 2433.77 1404.56C2436.33 1405.74 2439.16 1406.32 2442.25 1406.32C2445.98 1406.32 2449.18 1405.26 2451.85 1403.12C2454.62 1401.1 2457.24 1397.47 2459.69 1392.24L2465.13 1379.92L2466.41 1378.16L2500.97 1300.24H2512.17L2470.09 1394.32C2467.74 1399.76 2465.13 1404.08 2462.25 1407.28C2459.48 1410.48 2456.44 1412.72 2453.13 1414C2449.82 1415.39 2446.14 1416.08 2442.09 1416.08ZM2464.49 1386.64L2425.77 1300.24H2437.61L2471.85 1377.36L2464.49 1386.64ZM2571.96 1384.24V1289.68C2571.96 1282.22 2574.15 1276.19 2578.52 1271.6C2582.9 1267.02 2589.19 1264.72 2597.4 1264.72C2600.6 1264.72 2603.7 1265.15 2606.68 1266C2609.67 1266.86 2612.18 1268.19 2614.2 1270L2610.36 1278.48C2608.76 1277.1 2606.9 1276.08 2604.76 1275.44C2602.63 1274.7 2600.34 1274.32 2597.88 1274.32C2593.08 1274.32 2589.4 1275.66 2586.84 1278.32C2584.28 1280.99 2583 1284.94 2583 1290.16V1302.96L2583.32 1308.24V1384.24H2571.96ZM2556.92 1309.68V1300.24H2608.92V1309.68H2556.92ZM2657.1 1385.04C2648.99 1385.04 2641.68 1383.23 2635.18 1379.6C2628.78 1375.87 2623.71 1370.8 2619.98 1364.4C2616.24 1357.9 2614.38 1350.48 2614.38 1342.16C2614.38 1333.74 2616.24 1326.32 2619.98 1319.92C2623.71 1313.52 2628.78 1308.51 2635.18 1304.88C2641.58 1301.26 2648.88 1299.44 2657.1 1299.44C2665.42 1299.44 2672.78 1301.26 2679.18 1304.88C2685.68 1308.51 2690.75 1313.52 2694.38 1319.92C2698.11 1326.32 2699.98 1333.74 2699.98 1342.16C2699.98 1350.48 2698.11 1357.9 2694.38 1364.4C2690.75 1370.8 2685.68 1375.87 2679.18 1379.6C2672.67 1383.23 2665.31 1385.04 2657.1 1385.04ZM2657.1 1374.96C2663.18 1374.96 2668.56 1373.63 2673.26 1370.96C2677.95 1368.19 2681.63 1364.35 2684.3 1359.44C2687.07 1354.43 2688.46 1348.67 2688.46 1342.16C2688.46 1335.55 2687.07 1329.79 2684.3 1324.88C2681.63 1319.98 2677.95 1316.19 2673.26 1313.52C2668.56 1310.75 2663.23 1309.36 2657.26 1309.36C2651.28 1309.36 2645.95 1310.75 2641.26 1313.52C2636.56 1316.19 2632.83 1319.98 2630.06 1324.88C2627.28 1329.79 2625.9 1335.55 2625.9 1342.16C2625.9 1348.67 2627.28 1354.43 2630.06 1359.44C2632.83 1364.35 2636.56 1368.19 2641.26 1370.96C2645.95 1373.63 2651.23 1374.96 2657.1 1374.96ZM2723.17 1384.24V1300.24H2734.05V1323.12L2732.93 1319.12C2735.27 1312.72 2739.22 1307.87 2744.77 1304.56C2750.31 1301.15 2757.19 1299.44 2765.41 1299.44V1310.48C2764.98 1310.48 2764.55 1310.48 2764.13 1310.48C2763.7 1310.38 2763.27 1310.32 2762.85 1310.32C2753.99 1310.32 2747.06 1313.04 2742.05 1318.48C2737.03 1323.82 2734.53 1331.44 2734.53 1341.36V1384.24H2723.17ZM2829.26 1384.24V1300.24H2840.14V1323.12L2839.02 1319.12C2841.37 1312.72 2845.32 1307.87 2850.86 1304.56C2856.41 1301.15 2863.29 1299.44 2871.5 1299.44V1310.48C2871.08 1310.48 2870.65 1310.48 2870.22 1310.48C2869.8 1310.38 2869.37 1310.32 2868.94 1310.32C2860.09 1310.32 2853.16 1313.04 2848.14 1318.48C2843.13 1323.82 2840.62 1331.44 2840.62 1341.36V1384.24H2829.26ZM2927.13 1385.04C2918.38 1385.04 2910.7 1383.23 2904.09 1379.6C2897.48 1375.87 2892.3 1370.8 2888.57 1364.4C2884.84 1357.9 2882.97 1350.48 2882.97 1342.16C2882.97 1333.84 2884.73 1326.48 2888.25 1320.08C2891.88 1313.68 2896.78 1308.67 2902.97 1305.04C2909.26 1301.31 2916.3 1299.44 2924.09 1299.44C2931.98 1299.44 2938.97 1301.26 2945.05 1304.88C2951.24 1308.4 2956.09 1313.42 2959.61 1319.92C2963.13 1326.32 2964.89 1333.74 2964.89 1342.16C2964.89 1342.7 2964.84 1343.28 2964.73 1343.92C2964.73 1344.46 2964.73 1345.04 2964.73 1345.68H2891.61V1337.2H2958.65L2954.17 1340.56C2954.17 1334.48 2952.84 1329.1 2950.17 1324.4C2947.61 1319.6 2944.09 1315.87 2939.61 1313.2C2935.13 1310.54 2929.96 1309.2 2924.09 1309.2C2918.33 1309.2 2913.16 1310.54 2908.57 1313.2C2903.98 1315.87 2900.41 1319.6 2897.85 1324.4C2895.29 1329.2 2894.01 1334.7 2894.01 1340.88V1342.64C2894.01 1349.04 2895.4 1354.7 2898.17 1359.6C2901.05 1364.4 2905 1368.19 2910.01 1370.96C2915.13 1373.63 2920.94 1374.96 2927.45 1374.96C2932.57 1374.96 2937.32 1374.06 2941.69 1372.24C2946.17 1370.43 2950.01 1367.66 2953.21 1363.92L2959.61 1371.28C2955.88 1375.76 2951.18 1379.18 2945.53 1381.52C2939.98 1383.87 2933.85 1385.04 2927.13 1385.04ZM3038.31 1384.24V1365.68L3037.83 1362.64V1331.6C3037.83 1324.46 3035.8 1318.96 3031.75 1315.12C3027.8 1311.28 3021.88 1309.36 3013.99 1309.36C3008.55 1309.36 3003.37 1310.27 2998.47 1312.08C2993.56 1313.9 2989.4 1316.3 2985.99 1319.28L2980.87 1310.8C2985.13 1307.18 2990.25 1304.4 2996.23 1302.48C3002.2 1300.46 3008.49 1299.44 3015.11 1299.44C3025.99 1299.44 3034.36 1302.16 3040.23 1307.6C3046.2 1312.94 3049.19 1321.1 3049.19 1332.08V1384.24H3038.31ZM3009.35 1385.04C3003.05 1385.04 2997.56 1384.03 2992.87 1382C2988.28 1379.87 2984.76 1376.99 2982.31 1373.36C2979.85 1369.63 2978.63 1365.36 2978.63 1360.56C2978.63 1356.19 2979.64 1352.24 2981.67 1348.72C2983.8 1345.1 2987.21 1342.22 2991.91 1340.08C2996.71 1337.84 3003.11 1336.72 3011.11 1336.72H3040.07V1345.2H3011.43C3003.32 1345.2 2997.67 1346.64 2994.47 1349.52C2991.37 1352.4 2989.83 1355.98 2989.83 1360.24C2989.83 1365.04 2991.69 1368.88 2995.43 1371.76C2999.16 1374.64 3004.39 1376.08 3011.11 1376.08C3017.51 1376.08 3023 1374.64 3027.59 1371.76C3032.28 1368.78 3035.69 1364.51 3037.83 1358.96L3040.39 1366.8C3038.25 1372.35 3034.52 1376.78 3029.19 1380.08C3023.96 1383.39 3017.35 1385.04 3009.35 1385.04ZM3113.48 1385.04C3105.48 1385.04 3098.28 1383.23 3091.88 1379.6C3085.59 1375.98 3080.63 1370.96 3077 1364.56C3073.38 1358.06 3071.56 1350.59 3071.56 1342.16C3071.56 1333.63 3073.38 1326.16 3077 1319.76C3080.63 1313.36 3085.59 1308.4 3091.88 1304.88C3098.28 1301.26 3105.48 1299.44 3113.48 1299.44C3120.84 1299.44 3127.4 1301.1 3133.16 1304.4C3139.03 1307.71 3143.67 1312.56 3147.08 1318.96C3150.6 1325.26 3152.36 1332.99 3152.36 1342.16C3152.36 1351.23 3150.66 1358.96 3147.24 1365.36C3143.83 1371.76 3139.19 1376.67 3133.32 1380.08C3127.56 1383.39 3120.95 1385.04 3113.48 1385.04ZM3114.28 1374.96C3120.26 1374.96 3125.59 1373.63 3130.28 1370.96C3135.08 1368.19 3138.82 1364.35 3141.48 1359.44C3144.26 1354.43 3145.64 1348.67 3145.64 1342.16C3145.64 1335.55 3144.26 1329.79 3141.48 1324.88C3138.82 1319.98 3135.08 1316.19 3130.28 1313.52C3125.59 1310.75 3120.26 1309.36 3114.28 1309.36C3108.42 1309.36 3103.14 1310.75 3098.44 1313.52C3093.75 1316.19 3090.02 1319.98 3087.24 1324.88C3084.47 1329.79 3083.08 1335.55 3083.08 1342.16C3083.08 1348.67 3084.47 1354.43 3087.24 1359.44C3090.02 1364.35 3093.75 1368.19 3098.44 1370.96C3103.14 1373.63 3108.42 1374.96 3114.28 1374.96ZM3145.96 1384.24V1358.96L3147.08 1342L3145.48 1325.04V1265.52H3156.84V1384.24H3145.96ZM3188.48 1384.24V1300.24H3199.84V1384.24H3188.48ZM3194.24 1281.68C3191.89 1281.68 3189.92 1280.88 3188.32 1279.28C3186.72 1277.68 3185.92 1275.76 3185.92 1273.52C3185.92 1271.28 3186.72 1269.42 3188.32 1267.92C3189.92 1266.32 3191.89 1265.52 3194.24 1265.52C3196.59 1265.52 3198.56 1266.27 3200.16 1267.76C3201.76 1269.26 3202.56 1271.12 3202.56 1273.36C3202.56 1275.71 3201.76 1277.68 3200.16 1279.28C3198.67 1280.88 3196.69 1281.68 3194.24 1281.68ZM3274.33 1299.44C3281.16 1299.44 3287.13 1300.78 3292.25 1303.44C3297.48 1306 3301.53 1309.95 3304.41 1315.28C3307.4 1320.62 3308.89 1327.34 3308.89 1335.44V1384.24H3297.53V1336.56C3297.53 1327.71 3295.29 1321.04 3290.81 1316.56C3286.44 1311.98 3280.25 1309.68 3272.25 1309.68C3266.28 1309.68 3261.05 1310.91 3256.57 1313.36C3252.2 1315.71 3248.78 1319.18 3246.33 1323.76C3243.98 1328.24 3242.81 1333.68 3242.81 1340.08V1384.24H3231.45V1300.24H3242.33V1323.28L3240.57 1318.96C3243.24 1312.88 3247.5 1308.14 3253.37 1304.72C3259.24 1301.2 3266.22 1299.44 3274.33 1299.44ZM3375.41 1416.08C3367.73 1416.08 3360.37 1414.96 3353.33 1412.72C3346.29 1410.48 3340.59 1407.28 3336.21 1403.12L3341.97 1394.48C3345.92 1398 3350.77 1400.78 3356.53 1402.8C3362.4 1404.94 3368.59 1406 3375.09 1406C3385.76 1406 3393.6 1403.5 3398.61 1398.48C3403.63 1393.58 3406.13 1385.9 3406.13 1375.44V1354.48L3407.73 1340.08L3406.61 1325.68V1300.24H3417.49V1374C3417.49 1388.51 3413.92 1399.12 3406.77 1405.84C3399.73 1412.67 3389.28 1416.08 3375.41 1416.08ZM3373.33 1381.04C3365.33 1381.04 3358.13 1379.34 3351.73 1375.92C3345.33 1372.4 3340.27 1367.55 3336.53 1361.36C3332.91 1355.18 3331.09 1348.08 3331.09 1340.08C3331.09 1332.08 3332.91 1325.04 3336.53 1318.96C3340.27 1312.78 3345.33 1307.98 3351.73 1304.56C3358.13 1301.15 3365.33 1299.44 3373.33 1299.44C3380.8 1299.44 3387.52 1300.99 3393.49 1304.08C3399.47 1307.18 3404.21 1311.76 3407.73 1317.84C3411.25 1323.92 3413.01 1331.34 3413.01 1340.08C3413.01 1348.83 3411.25 1356.24 3407.73 1362.32C3404.21 1368.4 3399.47 1373.04 3393.49 1376.24C3387.52 1379.44 3380.8 1381.04 3373.33 1381.04ZM3374.45 1370.96C3380.64 1370.96 3386.13 1369.68 3390.93 1367.12C3395.73 1364.46 3399.52 1360.83 3402.29 1356.24C3405.07 1351.55 3406.45 1346.16 3406.45 1340.08C3406.45 1334 3405.07 1328.67 3402.29 1324.08C3399.52 1319.5 3395.73 1315.92 3390.93 1313.36C3386.13 1310.7 3380.64 1309.36 3374.45 1309.36C3368.37 1309.36 3362.88 1310.7 3357.97 1313.36C3353.17 1315.92 3349.39 1319.5 3346.61 1324.08C3343.95 1328.67 3342.61 1334 3342.61 1340.08C3342.61 1346.16 3343.95 1351.55 3346.61 1356.24C3349.39 1360.83 3353.17 1364.46 3357.97 1367.12C3362.88 1369.68 3368.37 1370.96 3374.45 1370.96ZM3520.58 1385.2C3513.33 1385.2 3506.87 1384.03 3501.22 1381.68C3495.57 1379.23 3491.09 1375.87 3487.78 1371.6C3484.58 1367.34 3482.98 1362.38 3482.98 1356.72C3482.98 1351.92 3484.05 1347.55 3486.18 1343.6C3488.31 1339.55 3491.73 1335.6 3496.42 1331.76C3501.22 1327.82 3507.57 1323.71 3515.46 1319.44C3522.18 1315.71 3527.41 1312.51 3531.14 1309.84C3534.98 1307.07 3537.7 1304.46 3539.3 1302C3540.9 1299.44 3541.7 1296.72 3541.7 1293.84C3541.7 1289.68 3540.26 1286.32 3537.38 1283.76C3534.61 1281.2 3530.61 1279.92 3525.38 1279.92C3519.73 1279.92 3515.35 1281.36 3512.26 1284.24C3509.17 1287.02 3507.62 1290.64 3507.62 1295.12C3507.62 1297.36 3507.94 1299.5 3508.58 1301.52C3509.33 1303.55 3510.66 1305.79 3512.58 1308.24C3514.61 1310.7 3517.38 1313.79 3520.9 1317.52L3580.1 1378.48L3573.54 1386L3511.78 1322.48C3508.05 1318.54 3505.06 1315.12 3502.82 1312.24C3500.69 1309.26 3499.19 1306.43 3498.34 1303.76C3497.49 1301.1 3497.06 1298.27 3497.06 1295.28C3497.06 1290.48 3498.18 1286.32 3500.42 1282.8C3502.77 1279.18 3506.07 1276.4 3510.34 1274.48C3514.61 1272.46 3519.62 1271.44 3525.38 1271.44C3530.61 1271.44 3535.14 1272.35 3538.98 1274.16C3542.93 1275.87 3545.97 1278.38 3548.1 1281.68C3550.34 1284.99 3551.46 1288.99 3551.46 1293.68C3551.46 1297.74 3550.45 1301.52 3548.42 1305.04C3546.5 1308.56 3543.3 1312.03 3538.82 1315.44C3534.34 1318.75 3528.26 1322.48 3520.58 1326.64C3513.86 1330.38 3508.53 1333.79 3504.58 1336.88C3500.74 1339.98 3498.02 1343.02 3496.42 1346C3494.82 1348.88 3494.02 1352.08 3494.02 1355.6C3494.02 1359.66 3495.14 1363.23 3497.38 1366.32C3499.73 1369.31 3502.93 1371.66 3506.98 1373.36C3511.14 1374.96 3515.89 1375.76 3521.22 1375.76C3528.69 1375.76 3535.35 1374.22 3541.22 1371.12C3547.09 1368.03 3551.99 1363.34 3555.94 1357.04C3559.99 1350.75 3562.93 1342.86 3564.74 1333.36L3573.86 1336.24C3571.83 1346.91 3568.37 1355.87 3563.46 1363.12C3558.55 1370.38 3552.47 1375.87 3545.22 1379.6C3537.97 1383.34 3529.75 1385.2 3520.58 1385.2ZM3657.01 1384.24L3625.33 1300.24H3636.21L3665.01 1378.16H3660.05L3689.65 1300.24H3699.41L3728.69 1378.16H3723.73L3753.01 1300.24H3763.41L3731.57 1384.24H3720.85L3692.69 1310.96H3696.05L3667.73 1384.24H3657.01ZM3780.51 1384.24V1300.24H3791.39V1323.12L3790.27 1319.12C3792.62 1312.72 3796.57 1307.87 3802.11 1304.56C3807.66 1301.15 3814.54 1299.44 3822.75 1299.44V1310.48C3822.33 1310.48 3821.9 1310.48 3821.47 1310.48C3821.05 1310.38 3820.62 1310.32 3820.19 1310.32C3811.34 1310.32 3804.41 1313.04 3799.39 1318.48C3794.38 1323.82 3791.87 1331.44 3791.87 1341.36V1384.24H3780.51ZM3843.48 1384.24V1300.24H3854.84V1384.24H3843.48ZM3849.24 1281.68C3846.89 1281.68 3844.92 1280.88 3843.32 1279.28C3841.72 1277.68 3840.92 1275.76 3840.92 1273.52C3840.92 1271.28 3841.72 1269.42 3843.32 1267.92C3844.92 1266.32 3846.89 1265.52 3849.24 1265.52C3851.59 1265.52 3853.56 1266.27 3855.16 1267.76C3856.76 1269.26 3857.56 1271.12 3857.56 1273.36C3857.56 1275.71 3856.76 1277.68 3855.16 1279.28C3853.67 1280.88 3851.69 1281.68 3849.24 1281.68ZM3913.01 1385.04C3905.12 1385.04 3899.04 1382.91 3894.77 1378.64C3890.5 1374.38 3888.37 1368.35 3888.37 1360.56V1281.68H3899.73V1359.92C3899.73 1364.83 3900.96 1368.62 3903.41 1371.28C3905.97 1373.95 3909.6 1375.28 3914.29 1375.28C3919.3 1375.28 3923.46 1373.84 3926.77 1370.96L3930.77 1379.12C3928.53 1381.15 3925.81 1382.64 3922.61 1383.6C3919.52 1384.56 3916.32 1385.04 3913.01 1385.04ZM3873.33 1309.68V1300.24H3925.33V1309.68H3873.33ZM3951.45 1384.24V1300.24H3962.81V1384.24H3951.45ZM3957.21 1281.68C3954.86 1281.68 3952.89 1280.88 3951.29 1279.28C3949.69 1277.68 3948.89 1275.76 3948.89 1273.52C3948.89 1271.28 3949.69 1269.42 3951.29 1267.92C3952.89 1266.32 3954.86 1265.52 3957.21 1265.52C3959.56 1265.52 3961.53 1266.27 3963.13 1267.76C3964.73 1269.26 3965.53 1271.12 3965.53 1273.36C3965.53 1275.71 3964.73 1277.68 3963.13 1279.28C3961.64 1280.88 3959.66 1281.68 3957.21 1281.68ZM4037.3 1299.44C4044.12 1299.44 4050.1 1300.78 4055.22 1303.44C4060.44 1306 4064.5 1309.95 4067.38 1315.28C4070.36 1320.62 4071.86 1327.34 4071.86 1335.44V1384.24H4060.5V1336.56C4060.5 1327.71 4058.26 1321.04 4053.78 1316.56C4049.4 1311.98 4043.22 1309.68 4035.22 1309.68C4029.24 1309.68 4024.02 1310.91 4019.54 1313.36C4015.16 1315.71 4011.75 1319.18 4009.3 1323.76C4006.95 1328.24 4005.78 1333.68 4005.78 1340.08V1384.24H3994.42V1300.24H4005.3V1323.28L4003.54 1318.96C4006.2 1312.88 4010.47 1308.14 4016.34 1304.72C4022.2 1301.2 4029.19 1299.44 4037.3 1299.44ZM4138.38 1416.08C4130.7 1416.08 4123.34 1414.96 4116.3 1412.72C4109.26 1410.48 4103.56 1407.28 4099.18 1403.12L4104.94 1394.48C4108.89 1398 4113.74 1400.78 4119.5 1402.8C4125.37 1404.94 4131.56 1406 4138.06 1406C4148.73 1406 4156.57 1403.5 4161.58 1398.48C4166.6 1393.58 4169.1 1385.9 4169.1 1375.44V1354.48L4170.7 1340.08L4169.58 1325.68V1300.24H4180.46V1374C4180.46 1388.51 4176.89 1399.12 4169.74 1405.84C4162.7 1412.67 4152.25 1416.08 4138.38 1416.08ZM4136.3 1381.04C4128.3 1381.04 4121.1 1379.34 4114.7 1375.92C4108.3 1372.4 4103.24 1367.55 4099.5 1361.36C4095.88 1355.18 4094.06 1348.08 4094.06 1340.08C4094.06 1332.08 4095.88 1325.04 4099.5 1318.96C4103.24 1312.78 4108.3 1307.98 4114.7 1304.56C4121.1 1301.15 4128.3 1299.44 4136.3 1299.44C4143.77 1299.44 4150.49 1300.99 4156.46 1304.08C4162.44 1307.18 4167.18 1311.76 4170.7 1317.84C4174.22 1323.92 4175.98 1331.34 4175.98 1340.08C4175.98 1348.83 4174.22 1356.24 4170.7 1362.32C4167.18 1368.4 4162.44 1373.04 4156.46 1376.24C4150.49 1379.44 4143.77 1381.04 4136.3 1381.04ZM4137.42 1370.96C4143.61 1370.96 4149.1 1369.68 4153.9 1367.12C4158.7 1364.46 4162.49 1360.83 4165.26 1356.24C4168.04 1351.55 4169.42 1346.16 4169.42 1340.08C4169.42 1334 4168.04 1328.67 4165.26 1324.08C4162.49 1319.5 4158.7 1315.92 4153.9 1313.36C4149.1 1310.7 4143.61 1309.36 4137.42 1309.36C4131.34 1309.36 4125.85 1310.7 4120.94 1313.36C4116.14 1315.92 4112.36 1319.5 4109.58 1324.08C4106.92 1328.67 4105.58 1334 4105.58 1340.08C4105.58 1346.16 4106.92 1351.55 4109.58 1356.24C4112.36 1360.83 4116.14 1364.46 4120.94 1367.12C4125.85 1369.68 4131.34 1370.96 4137.42 1370.96ZM4734.31 1384.24V1289.68C4734.31 1282.22 4736.49 1276.19 4740.87 1271.6C4745.24 1267.02 4751.53 1264.72 4759.75 1264.72C4762.95 1264.72 4766.04 1265.15 4769.03 1266C4772.01 1266.86 4774.52 1268.19 4776.55 1270L4772.71 1278.48C4771.11 1277.1 4769.24 1276.08 4767.11 1275.44C4764.97 1274.7 4762.68 1274.32 4760.23 1274.32C4755.43 1274.32 4751.75 1275.66 4749.19 1278.32C4746.63 1280.99 4745.35 1284.94 4745.35 1290.16V1302.96L4745.67 1308.24V1384.24H4734.31ZM4719.27 1309.68V1300.24H4771.27V1309.68H4719.27ZM4786.63 1384.24V1300.24H4797.99V1384.24H4786.63ZM4792.39 1281.68C4790.04 1281.68 4788.07 1280.88 4786.47 1279.28C4784.87 1277.68 4784.07 1275.76 4784.07 1273.52C4784.07 1271.28 4784.87 1269.42 4786.47 1267.92C4788.07 1266.32 4790.04 1265.52 4792.39 1265.52C4794.73 1265.52 4796.71 1266.27 4798.31 1267.76C4799.91 1269.26 4800.71 1271.12 4800.71 1273.36C4800.71 1275.71 4799.91 1277.68 4798.31 1279.28C4796.81 1280.88 4794.84 1281.68 4792.39 1281.68ZM4829.89 1384.24V1265.52H4841.25V1384.24H4829.89ZM4908.54 1385.04C4899.79 1385.04 4892.11 1383.23 4885.5 1379.6C4878.88 1375.87 4873.71 1370.8 4869.98 1364.4C4866.24 1357.9 4864.38 1350.48 4864.38 1342.16C4864.38 1333.84 4866.14 1326.48 4869.66 1320.08C4873.28 1313.68 4878.19 1308.67 4884.38 1305.04C4890.67 1301.31 4897.71 1299.44 4905.5 1299.44C4913.39 1299.44 4920.38 1301.26 4926.46 1304.88C4932.64 1308.4 4937.5 1313.42 4941.02 1319.92C4944.54 1326.32 4946.3 1333.74 4946.3 1342.16C4946.3 1342.7 4946.24 1343.28 4946.14 1343.92C4946.14 1344.46 4946.14 1345.04 4946.14 1345.68H4873.02V1337.2H4940.06L4935.58 1340.56C4935.58 1334.48 4934.24 1329.1 4931.58 1324.4C4929.02 1319.6 4925.5 1315.87 4921.02 1313.2C4916.54 1310.54 4911.36 1309.2 4905.5 1309.2C4899.74 1309.2 4894.56 1310.54 4889.98 1313.2C4885.39 1315.87 4881.82 1319.6 4879.26 1324.4C4876.7 1329.2 4875.42 1334.7 4875.42 1340.88V1342.64C4875.42 1349.04 4876.8 1354.7 4879.58 1359.6C4882.46 1364.4 4886.4 1368.19 4891.42 1370.96C4896.54 1373.63 4902.35 1374.96 4908.86 1374.96C4913.98 1374.96 4918.72 1374.06 4923.1 1372.24C4927.58 1370.43 4931.42 1367.66 4934.62 1363.92L4941.02 1371.28C4937.28 1375.76 4932.59 1379.18 4926.94 1381.52C4921.39 1383.87 4915.26 1385.04 4908.54 1385.04ZM4991.98 1385.04C4985.04 1385.04 4978.48 1384.08 4972.3 1382.16C4966.11 1380.14 4961.26 1377.63 4957.74 1374.64L4962.86 1365.68C4966.27 1368.24 4970.64 1370.48 4975.98 1372.4C4981.31 1374.22 4986.91 1375.12 4992.78 1375.12C5000.78 1375.12 5006.54 1373.9 5010.06 1371.44C5013.58 1368.88 5015.34 1365.52 5015.34 1361.36C5015.34 1358.27 5014.32 1355.87 5012.3 1354.16C5010.38 1352.35 5007.82 1351.02 5004.62 1350.16C5001.42 1349.2 4997.84 1348.4 4993.9 1347.76C4989.95 1347.12 4986 1346.38 4982.06 1345.52C4978.22 1344.67 4974.7 1343.44 4971.5 1341.84C4968.3 1340.14 4965.68 1337.84 4963.66 1334.96C4961.74 1332.08 4960.78 1328.24 4960.78 1323.44C4960.78 1318.86 4962.06 1314.75 4964.62 1311.12C4967.18 1307.5 4970.91 1304.67 4975.82 1302.64C4980.83 1300.51 4986.91 1299.44 4994.06 1299.44C4999.5 1299.44 5004.94 1300.19 5010.38 1301.68C5015.82 1303.07 5020.3 1304.94 5023.82 1307.28L5018.86 1316.4C5015.12 1313.84 5011.12 1312.03 5006.86 1310.96C5002.59 1309.79 4998.32 1309.2 4994.06 1309.2C4986.48 1309.2 4980.88 1310.54 4977.26 1313.2C4973.74 1315.76 4971.98 1319.07 4971.98 1323.12C4971.98 1326.32 4972.94 1328.83 4974.86 1330.64C4976.88 1332.46 4979.5 1333.9 4982.7 1334.96C4986 1335.92 4989.58 1336.72 4993.42 1337.36C4997.36 1338 5001.26 1338.8 5005.1 1339.76C5009.04 1340.62 5012.62 1341.84 5015.82 1343.44C5019.12 1344.94 5021.74 1347.12 5023.66 1350C5025.68 1352.78 5026.7 1356.46 5026.7 1361.04C5026.7 1365.95 5025.31 1370.22 5022.54 1373.84C5019.87 1377.36 5015.92 1380.14 5010.7 1382.16C5005.58 1384.08 4999.34 1385.04 4991.98 1385.04Z" fill="#737373"/>
<path d="M4251.39 1384.24V1272.24H4299.87C4309.9 1272.24 4318.54 1273.9 4325.79 1277.2C4333.04 1280.4 4338.64 1285.04 4342.59 1291.12C4346.54 1297.2 4348.51 1304.46 4348.51 1312.88C4348.51 1321.2 4346.54 1328.4 4342.59 1334.48C4338.64 1340.56 4333.04 1345.26 4325.79 1348.56C4318.54 1351.76 4309.9 1353.36 4299.87 1353.36H4265.79L4277.31 1341.68V1384.24H4251.39ZM4277.31 1344.56L4265.79 1332.24H4298.43C4306.43 1332.24 4312.4 1330.54 4316.35 1327.12C4320.3 1323.71 4322.27 1318.96 4322.27 1312.88C4322.27 1306.7 4320.3 1301.9 4316.35 1298.48C4312.4 1295.07 4306.43 1293.36 4298.43 1293.36H4265.79L4277.31 1281.04V1344.56ZM4367.01 1384.24V1272.24H4415.49C4425.52 1272.24 4434.16 1273.9 4441.41 1277.2C4448.67 1280.4 4454.27 1285.04 4458.21 1291.12C4462.16 1297.2 4464.13 1304.46 4464.13 1312.88C4464.13 1321.2 4462.16 1328.4 4458.21 1334.48C4454.27 1340.56 4448.67 1345.26 4441.41 1348.56C4434.16 1351.76 4425.52 1353.36 4415.49 1353.36H4381.41L4392.93 1341.68V1384.24H4367.01ZM4392.93 1344.56L4381.41 1332.24H4414.05C4422.05 1332.24 4428.03 1330.54 4431.97 1327.12C4435.92 1323.71 4437.89 1318.96 4437.89 1312.88C4437.89 1306.7 4435.92 1301.9 4431.97 1298.48C4428.03 1295.07 4422.05 1293.36 4414.05 1293.36H4381.41L4392.93 1281.04V1344.56ZM4502.87 1384.24V1293.36H4467.03V1272.24H4564.63V1293.36H4528.79V1384.24H4502.87ZM4560.93 1384.24L4609.09 1317.84V1336.72L4563.01 1272.24H4592.45L4624.29 1317.2L4611.97 1317.36L4643.33 1272.24H4671.49L4625.73 1335.6V1317.04L4674.21 1384.24H4644.29L4611.33 1336.72H4623.17L4590.69 1384.24H4560.93Z" fill="#D24525"/>
<defs>
<linearGradient id="paint0_linear_2001_284" x1="777.451" y1="1411.76" x2="247.667" y2="1411.76" gradientUnits="userSpaceOnUse">
<stop stop-color="#D04223"/>
<stop offset="1" stop-color="#D44A27"/>
</linearGradient>
<clipPath id="clip0_2001_284">
<rect width="966.64" height="874.608" fill="white" transform="translate(247.652 974.449)"/>
</clipPath>
</defs>
</svg>
