<svg width="391" height="486" viewBox="0 0 391 486" fill="none" xmlns="http://www.w3.org/2000/svg">
<path d="M245.311 428.657C248.169 428.138 250.405 428.306 252.163 429.035C253.921 429.764 255.212 431.048 256.322 432.684C257.432 434.32 258.381 436.3 259.334 438.427C260.287 440.554 261.22 442.83 262.13 445.121C263.041 447.412 263.741 449.62 264.192 451.685C264.643 453.751 264.861 455.671 264.751 457.362C264.642 459.054 264.197 460.517 263.258 461.661C262.319 462.805 260.881 463.63 258.835 464.035C256.788 464.441 255.134 464.229 253.828 463.538C252.522 462.848 251.572 461.679 250.851 460.178C250.131 458.677 249.64 456.846 249.107 454.824C248.574 452.802 247.977 450.592 247.032 448.296C246.087 446 244.644 443.782 243.27 441.676C241.896 439.571 240.614 437.581 239.924 435.811C239.233 434.041 239.134 432.496 239.943 431.279C240.752 430.061 242.454 429.176 245.311 428.657Z" fill="#E1D6B9"/>
<path d="M238.299 435.519C238.804 437.235 239.776 439.147 240.913 441.193C242.211 443.53 243.707 446.036 244.792 448.682C245.878 451.328 246.631 453.846 247.352 456.141C248.074 458.436 248.794 460.506 249.792 462.205C250.789 463.904 252.063 465.229 253.679 466.03C255.295 466.831 257.241 467.109 259.496 466.73C261.751 466.351 263.422 465.428 264.573 464.098C265.725 462.767 266.365 461.03 266.622 459.02C266.88 457.01 266.765 454.729 266.351 452.296C265.937 449.864 265.206 447.285 264.169 444.645C263.131 442.006 262.06 439.502 260.98 437.225C259.899 434.948 258.821 432.899 257.548 431.245C257.064 430.616 256.546 430.047 255.987 429.541C254.858 428.521 251.694 429.336 253.053 430.124C254.311 430.854 254.722 431.817 255.576 433.113C256.617 434.693 257.359 436.731 258.196 438.683C259.033 440.636 260.577 442.479 261.399 444.515C262.221 446.55 262.847 448.524 263.246 450.409C263.644 452.295 263.833 454.088 263.729 455.682C263.624 457.276 263.213 458.666 262.351 459.733C261.488 460.799 260.169 461.54 258.35 461.897C256.53 462.254 255.095 462.055 254.014 461.401C252.933 460.747 252.852 458.906 252.34 457.518C251.827 456.13 251.024 454.43 250.566 452.643C250.108 450.856 249.342 449.712 248.239 447.743C247.136 445.774 245.442 443.843 243.888 441.844C242.334 439.846 241.083 437.91 240.418 436.208C240.335 435.995 240.26 435.785 240.196 435.579C240.029 435.051 239.911 434.547 239.896 434.068C239.88 433.515 237.716 433.35 238.112 434.797C238.177 435.032 238.227 435.274 238.299 435.519Z" fill="#394655"/>
<path d="M110.718 422.168C107.861 421.649 105.624 421.817 103.867 422.545C102.109 423.274 100.818 424.559 99.7081 426.195C98.598 427.831 97.6485 429.81 96.6958 431.937C95.7431 434.064 94.8101 436.341 93.8996 438.632C92.9891 440.922 92.2887 443.13 91.8375 445.196C91.3863 447.261 91.1691 449.181 91.2785 450.873C91.3879 452.564 91.833 454.028 92.7719 455.171C93.711 456.315 95.1489 457.14 97.1952 457.546C99.2414 457.951 100.896 457.739 102.202 457.049C103.508 456.358 104.458 455.189 105.179 453.688C105.899 452.187 106.39 450.356 106.922 448.334C107.455 446.312 108.053 444.102 108.998 441.806C109.943 439.511 111.385 437.292 112.76 435.187C114.134 433.082 115.415 431.091 116.106 429.321C116.797 427.551 116.896 426.007 116.087 424.789C115.277 423.572 113.576 422.686 110.718 422.168Z" fill="#E1D6B9"/>
<path d="M117.731 429.03C117.226 430.745 116.254 432.658 115.117 434.703C113.819 437.041 112.323 439.546 111.238 442.193C110.152 444.839 109.399 447.356 108.678 449.651C107.956 451.947 107.236 454.017 106.238 455.716C105.241 457.415 103.967 458.74 102.351 459.541C100.735 460.342 98.789 460.619 96.5338 460.241C94.2786 459.862 92.6083 458.938 91.4564 457.608C90.3046 456.278 89.6649 454.541 89.4075 452.531C89.15 450.521 89.2648 448.239 89.6789 445.807C90.093 443.375 90.8235 440.795 91.8609 438.156C92.8984 435.517 93.9695 433.013 95.0502 430.736C96.131 428.459 97.2089 426.41 98.4813 424.756C98.9654 424.127 99.4836 423.557 100.043 423.052C101.172 422.031 104.336 422.846 102.977 423.635C101.718 424.365 101.308 425.327 100.454 426.624C99.4132 428.204 98.671 430.241 97.8341 432.194C96.9972 434.146 95.4527 435.99 94.6309 438.025C93.809 440.06 93.1827 442.034 92.784 443.92C92.3853 445.806 92.1965 447.599 92.3011 449.193C92.4057 450.786 92.8165 452.176 93.6791 453.243C94.5418 454.31 95.8604 455.05 97.6799 455.407C99.4994 455.765 100.934 455.566 102.016 454.912C103.097 454.257 103.178 452.417 103.69 451.028C104.202 449.64 105.006 447.94 105.464 446.153C105.922 444.366 106.688 443.222 107.791 441.254C108.894 439.285 110.587 437.353 112.141 435.355C113.695 433.356 114.947 431.421 115.611 429.719C115.695 429.506 115.769 429.296 115.834 429.09C116 428.561 116.119 428.058 116.133 427.578C116.15 427.026 118.314 426.86 117.918 428.307C117.853 428.542 117.803 428.785 117.731 429.03Z" fill="#394655"/>
<path d="M334.428 286.136C333.835 297.618 333.529 309.026 332.935 320.2C332.342 331.374 331.459 342.315 329.7 352.855C327.941 363.396 325.305 373.536 321.214 383.105C317.122 392.674 311.576 401.671 304.013 409.933C294.471 420.357 281.487 428.775 266.072 434.995C250.657 441.216 232.808 445.242 213.531 446.854C194.254 448.467 173.544 447.666 152.456 444.178C131.368 440.69 109.899 434.512 89.2171 425.327C83.2359 422.67 77.2027 418.689 71.459 413.885C65.7154 409.08 60.2611 403.452 55.4351 397.498C50.6092 391.544 46.4119 385.265 43.1813 379.156C39.9507 373.047 37.6873 367.108 36.7251 361.836C34.7139 350.815 34.1244 340.843 34.2803 331.452C34.4362 322.06 35.3366 313.251 36.312 304.558C37.2874 295.865 38.3379 287.29 38.8082 278.361C39.2784 269.433 39.1698 260.152 37.8308 250.036C36.7649 241.985 35.563 234.19 34.4393 226.374C33.3155 218.559 32.2701 210.723 31.5202 202.591C30.7703 194.459 30.3161 186.032 30.3779 177.034C30.4397 168.036 31.0176 158.467 32.3332 148.051C33.2161 141.061 34.5862 133.532 36.5502 125.909C38.5141 118.286 41.0718 110.57 44.3279 103.211C47.5841 95.8521 51.5389 88.8513 56.2933 82.6653C61.0477 76.4793 66.6025 71.1084 73.0484 67.0103C81.493 61.6415 89.4418 57.0741 97.2303 53.2955C105.019 49.5169 112.647 46.5274 120.439 44.3152C128.232 42.103 136.189 40.6682 144.624 39.9979C153.059 39.3277 161.972 39.422 171.666 40.2653C185.471 41.4662 199.185 42.693 212.545 44.4024C225.906 46.1118 238.915 48.3038 251.289 51.4312C263.664 54.5586 275.403 58.6217 286.203 64.0665C297.004 69.5112 306.863 76.3383 315.477 84.9769C321.625 91.1424 326.703 98.228 330.802 105.964C334.901 113.7 338.021 122.086 340.265 130.857C342.509 139.629 343.878 148.786 344.475 158.072C345.073 167.358 344.9 176.774 344.053 186.073C343.438 192.815 342.783 199.379 342.115 205.779C341.448 212.179 340.767 218.416 340.099 224.504C339.432 230.592 338.777 236.531 338.159 242.336C337.541 248.14 336.961 253.809 336.441 259.356C336.225 261.668 336.019 263.959 335.824 266.23C335.63 268.5 335.447 270.75 335.277 272.981C335.108 275.211 334.951 277.422 334.809 279.615C334.667 281.807 334.54 283.98 334.428 286.136Z" fill="#394655"/>
<path d="M327.984 328.614C327.43 339.19 326.058 349.724 323.566 359.862C321.075 370.001 317.462 379.746 312.426 388.736C307.39 397.727 300.93 405.963 292.758 413.084C284.586 420.205 274.703 426.21 262.835 430.75C251.808 434.969 239.272 438.102 225.725 440.014C212.177 441.925 197.616 442.614 182.547 441.925C167.478 441.235 151.899 439.166 136.351 435.538C120.803 431.91 105.285 426.723 90.3844 419.787C84.7127 417.147 79.0075 413.211 73.5956 408.483C68.1837 403.755 63.0648 398.235 58.5629 392.425C54.061 386.614 50.1761 380.513 47.2309 374.622C44.2857 368.73 42.2804 363.047 41.5331 358.072C39.9601 347.601 39.5599 337.984 39.7626 328.848C39.9652 319.713 40.7701 311.058 41.6146 302.513C42.459 293.967 43.3432 285.531 43.7159 276.827C44.0886 268.124 43.9509 259.153 42.7539 249.527C41.7547 241.492 40.6673 233.932 39.6578 226.464C38.6483 218.996 37.7167 211.619 37.033 203.952C36.3494 196.285 35.9137 188.327 35.8995 179.694C35.8854 171.061 36.2929 161.754 37.2977 151.384C37.9544 144.606 39.107 137.263 40.8631 129.807C42.6192 122.352 44.9788 114.783 48.0474 107.562C51.1159 100.34 54.8937 93.4656 59.4819 87.4022C64.0702 81.3387 69.4696 76.087 75.7706 72.1121C83.7531 67.0765 91.1908 62.7111 98.4383 59.0341C105.686 55.3571 112.743 52.3686 119.954 50.0884C127.165 47.8081 134.53 46.2362 142.383 45.3913C150.235 44.5465 158.574 44.4288 167.722 45.0547C182.216 46.0464 196.753 47.1532 210.934 48.888C225.114 50.6228 238.94 52.9857 251.992 56.4848C265.043 59.9838 277.32 64.6197 288.38 70.891C299.44 77.1623 309.28 85.0702 317.461 95.0896C324.941 104.25 329.956 114.916 333.202 126.403C336.448 137.89 337.929 150.195 338.363 162.665C338.798 175.135 338.19 187.769 337.212 199.948C336.235 212.126 334.888 223.852 333.753 234.515C333.524 236.673 333.306 238.81 333.1 240.928C332.894 243.046 332.698 245.144 332.513 247.225C332.328 249.305 332.154 251.367 331.988 253.413C331.823 255.458 331.666 257.486 331.519 259.499C331.064 265.69 330.688 271.733 330.363 277.658C330.037 283.583 329.76 289.39 329.504 295.109C329.248 300.829 329.012 306.461 328.767 312.035C328.523 317.609 328.271 323.126 327.984 328.614Z" fill="#96D6FF"/>
<path d="M112.144 47.6927C113.079 51.3354 112.53 54.9948 111.128 58.2672C109.727 61.5396 107.545 64.4183 105.045 66.7272C102.545 69.0362 99.696 70.7943 96.3803 71.8786C93.0647 72.9628 88.9121 73.9409 85.0434 73.3847C81.1746 72.8284 78.4386 70.6996 76.1807 68.4441C73.9227 66.1886 71.5269 63.3907 67.6034 60.8249C63.6799 58.2592 59.8817 55.617 58.2179 52.7747C56.5541 49.9322 55.4558 46.9822 55.0415 44.0151C54.6273 41.048 54.9332 38.3367 55.8256 35.9006C56.718 33.4645 58.1969 31.3041 60.1593 29.4825C62.1216 27.661 64.5673 26.1785 67.4196 25.1384C70.272 24.0983 73.5299 23.5013 77.155 23.4857C80.78 23.4701 84.4374 24.04 87.9919 25.1248C91.5463 26.2095 95.0004 27.809 98.1296 29.8475C101.259 31.8861 104.057 34.3645 106.229 37.1958C108.401 40.0272 111.209 44.05 112.144 47.6927Z" fill="#96D6FF"/>
<path d="M74.0892 21.7421C71.2908 22.0327 68.7153 22.6562 66.3801 23.5474C63.2664 24.7356 60.5855 26.4005 58.4211 28.4253C56.2567 30.4501 54.608 32.8297 53.5943 35.5039C52.5805 38.1781 52.2026 41.1403 52.597 44.3716C52.9914 47.603 54.1234 50.8143 55.8786 53.8943C57.6338 56.9742 61.0541 59.9153 65.3777 62.5827C69.7013 65.25 72.3699 68.235 74.7987 70.625C77.2194 73.0068 76.2745 72.4337 80.7112 72.4375C81.2225 72.4374 81.2731 70.9716 80.8269 70.8904C76.9081 70.2175 78.7575 69.7401 76.3895 67.9379C74.1811 65.7393 71.8397 63.0113 68.0031 60.5112C64.1666 58.0111 60.4525 55.4353 58.8222 52.6648C57.192 49.8941 56.1109 47.0167 55.7016 44.1237C55.2921 41.2308 55.5916 38.5894 56.4622 36.2128C57.3328 33.8362 58.7759 31.7232 60.6956 29.9445C62.6154 28.1657 65.0055 26.7196 67.7977 25.7017C69.1938 25.193 70.6956 24.7919 72.2855 24.5159C73.8753 24.2398 75.5592 24.0865 77.3328 24.0756C80.8803 24.0571 84.4525 24.612 87.9264 25.6682C91.4003 26.7244 94.7785 28.2865 97.8324 30.2748C100.886 32.2632 103.613 34.6785 105.732 37.4405C107.851 40.2025 110.593 44.1233 111.512 47.6747C112.266 50.5911 113.152 50.6068 112.051 53.7767C111.846 54.367 114.852 54.1912 115.451 52.7568C116.568 50.0793 115.292 50.1308 114.487 47.3456C113.4 43.5793 110.74 39.1615 108.391 36.1008C106.043 33.0403 103.011 30.37 99.6281 28.1894C96.2456 26.0089 92.5208 24.314 88.6838 23.184C84.8467 22.054 80.8903 21.4863 76.9633 21.5649C75.9814 21.5845 75.0222 21.6461 74.0892 21.7421Z" fill="#394655"/>
<path fill-rule="evenodd" clip-rule="evenodd" d="M75.5061 40.1719C74.076 40.7112 72.7791 41.7887 71.9709 43.6951C71.3868 45.0727 71.3135 46.747 71.6971 48.7917C71.952 50.1505 72.4087 51.6728 73.0516 53.3802C73.2801 53.9871 74.6958 55.2307 75.6113 55.8206C77.0787 56.7662 78.9158 57.8413 79.1145 57.5768C79.2531 57.3921 76.8394 56.499 75.5735 55.2046C74.5176 54.1251 74.0456 52.9207 73.6595 51.0172C73.0821 48.1711 73.3294 46.3444 73.9292 44.9297C74.8056 42.8626 76.2849 41.943 77.9272 41.6384C79.5696 41.3337 81.3365 41.6899 82.613 42.1106C85.3359 43.0079 88.9571 44.5666 92.9142 48.3666C93.6478 49.071 94.1417 48.6558 93.4001 47.9713C89.254 44.1445 85.6481 41.5586 82.4462 40.4821C80.9689 39.9854 78.9397 39.5199 76.9675 39.8023C76.4745 39.8729 75.9828 39.9921 75.5061 40.1719Z" fill="#394655"/>
<path d="M247.405 53.493C247.367 57.2537 248.775 60.6759 250.917 63.5187C253.06 66.3615 255.866 68.6359 258.845 70.2807C261.825 71.9256 265.011 72.9523 268.49 73.2132C271.968 73.4741 276.234 73.4319 279.858 71.9676C283.482 70.5034 285.63 67.7827 287.284 65.0531C288.938 62.3235 290.596 59.0343 293.793 55.6056C296.99 52.177 300.047 48.704 300.984 45.5465C301.921 42.3889 302.283 39.2619 301.976 36.2817C301.67 33.3016 300.725 30.7419 299.276 28.5894C297.828 26.437 295.876 24.6924 293.535 23.3924C291.194 22.0923 288.465 21.237 285.447 20.9083C282.429 20.5797 279.123 20.7781 275.599 21.6289C272.075 22.4797 268.66 23.9068 265.467 25.8091C262.275 27.7115 259.303 30.0898 256.751 32.8168C254.2 35.5437 252.074 38.6189 250.641 41.8871C249.209 45.1553 247.443 49.7324 247.405 53.493Z" fill="#96D6FF"/>
<path d="M278.159 19.2034C280.946 18.8172 283.596 18.8073 286.077 19.1149C289.384 19.525 292.385 20.5013 294.97 21.9505C297.556 23.3997 299.725 25.3165 301.348 27.6711C302.972 30.0258 304.046 32.812 304.435 36.044C304.824 39.276 304.492 42.6647 303.523 46.0748C302.554 49.4849 299.936 53.1579 296.374 56.7808C292.813 60.4037 290.935 63.9397 289.147 66.8407C287.366 69.7318 288.146 68.9495 283.839 70.013C283.342 70.135 282.943 68.7238 283.357 68.5383C287.002 66.9489 285.092 66.9271 286.961 64.6113C288.58 61.9489 290.202 58.7406 293.33 55.3964C296.458 52.0523 299.45 48.6639 300.371 45.5841C301.292 42.5042 301.655 39.4518 301.361 36.5448C301.068 33.6378 300.146 31.1444 298.733 29.0446C297.32 26.9448 295.414 25.2376 293.125 23.969C290.836 22.7003 288.169 21.8669 285.215 21.5455C283.738 21.3851 282.183 21.3543 280.574 21.466C278.964 21.5777 277.292 21.831 275.567 22.2442C272.118 23.0735 268.782 24.4657 265.661 26.3211C262.54 28.1766 259.632 30.5004 257.142 33.1607C254.651 35.8209 252.58 38.8177 251.183 42.0059C249.785 45.1941 248.059 49.6564 248.015 53.3244C247.979 56.3366 247.122 56.5635 248.948 59.3787C249.289 59.9028 246.327 60.4503 245.403 59.2005C243.679 56.8672 244.931 56.6123 245.047 53.7156C245.203 49.7985 246.731 44.8733 248.28 41.3402C249.83 37.8073 252.136 34.49 254.9 31.5646C257.664 28.6392 260.876 26.1037 264.332 24.0897C267.788 22.0759 271.494 20.5796 275.326 19.7179C276.284 19.5024 277.231 19.333 278.159 19.2034Z" fill="#394655"/>
<path fill-rule="evenodd" clip-rule="evenodd" d="M281.186 37.4381C282.704 37.6203 284.22 38.3568 285.46 40.0149C286.357 41.2131 286.828 42.8215 286.944 44.8985C287.021 46.2789 286.941 47.8662 286.724 49.6778C286.648 50.3217 285.57 51.8675 284.822 52.6589C283.623 53.9277 282.096 55.4106 281.84 55.2011C281.661 55.0549 283.791 53.6111 284.711 52.0518C285.479 50.7513 285.649 49.469 285.57 47.5284C285.451 44.6268 284.774 42.912 283.854 41.6815C282.509 39.8836 280.853 39.344 279.185 39.4405C277.518 39.537 275.887 40.305 274.748 41.0184C272.318 42.5401 269.174 44.9187 266.239 49.5539C265.695 50.4131 265.116 50.128 265.673 49.2862C268.785 44.5797 271.669 41.2073 274.521 39.3971C275.837 38.562 277.696 37.6252 279.679 37.4283C280.174 37.3791 280.68 37.3774 281.186 37.4381Z" fill="#394655"/>
<g opacity="0.06">
<path d="M210.75 441.389C240.823 438.696 264.844 431.748 281.691 420.87C306.351 404.948 320.884 380.036 325.982 344.95C326.808 339.27 327.818 325.527 328.476 311.009C330.097 275.301 331.486 254.151 333.489 234.642C334.468 225.114 335.74 212.704 336.316 207.065C337.848 192.082 338.41 163.283 337.387 152.22C334.407 120.004 324.08 98.4876 303.525 81.6712C296.911 76.2597 286.342 69.7388 284.828 70.1348C282.888 70.6422 282.584 69.257 284.26 67.5468C285.095 66.6943 287.368 63.6103 289.309 60.6935C291.251 57.7767 294.403 53.5124 296.314 51.2173C300.277 46.4586 301.701 41.7227 300.906 35.941C298.949 21.7129 280.288 17.2571 264.814 27.323C254.375 34.1141 247.427 46.3776 248.443 56.2211C248.815 59.8292 248.761 59.9864 247.14 59.9864C245.285 59.9864 243.751 57.8801 244.391 56.2124C244.891 54.9089 244.475 54.7777 233.024 52.6285C222.43 50.6402 206.002 48.5187 187.769 46.7842C170.17 45.1101 143.363 45.0852 134.722 46.7349C124.584 48.6706 116.708 51.1819 115.538 52.8522C114.969 53.6648 113.928 54.3296 113.226 54.3296C112.218 54.3296 111.948 53.7625 111.948 51.6443C111.948 45.7712 105.356 35.8058 98.3974 31.159C92.0239 26.903 87.0387 25.2321 79.4444 24.8067C68.7681 24.2086 61.2348 27.6255 57.7319 34.6549C55.5933 38.9466 55.383 42.8563 57.027 47.7641C58.6411 52.5829 60.7532 55.0626 67.0114 59.4869C70.036 61.6251 74.0897 64.9988 76.0196 66.9838C77.9495 68.9689 79.9382 70.593 80.439 70.593C80.9398 70.593 81.3495 71.0946 81.3495 71.7077C81.3495 72.5661 80.7153 72.7767 78.5916 72.6234C75.1245 72.373 72.0567 74.4015 65.2918 81.4171C41.9172 105.658 31.9453 152.192 37.9134 209.177C38.5035 214.812 39.9613 226.267 41.1529 234.633C44.3411 257.018 44.602 273.791 42.1715 300.122C39.5344 328.692 39.756 349.764 42.825 362.275C44.2692 368.161 50.6562 380.837 56.0085 388.438C61.6741 396.483 75.1679 410.061 81.9377 414.529C98.1291 425.213 131.046 435.609 161.96 439.801C171.815 441.137 202.436 442.134 210.75 441.389ZM75.8717 56.3431C72.8978 54.5051 71.45 51.3269 71.45 46.637C71.45 43.6019 71.7365 42.9005 73.6256 41.311C77.5607 37.9997 83.0423 39.2347 90.4217 45.095C94.4192 48.2695 95.0304 50.1046 91.0914 47.1056C87.8122 44.6089 83.4872 42.5086 80.4532 41.9394C78.1738 41.5118 77.5919 41.7149 75.7131 43.5937C72.3327 46.9741 73.2141 53.0744 77.5499 56.3059C80.1941 58.2767 79.0417 58.3022 75.8717 56.3431ZM283.534 52.983C286.506 48.8087 284.886 41.1455 280.754 39.8341C277.879 38.9216 271.256 43.1766 267.548 48.3179C266.708 49.4839 265.79 50.2079 265.509 49.9268C264.654 49.0721 271.001 41.4842 274.351 39.3561C280.719 35.3107 286.29 37.479 286.941 44.2566C287.39 48.9271 286.878 50.8406 284.561 53.1582C282.108 55.6104 281.711 55.5427 283.534 52.983Z" fill="#E7E7E7" stroke="#9D9D9D" stroke-width="0.494975" stroke-linecap="round"/>
<path d="M77.8141 25.0215C87.2159 25.0649 91.2053 26.2708 98.5602 31.2871C105.787 36.2161 113.196 48.1895 111.955 52.9355C111.45 54.8674 114.158 54.8213 115.521 52.8749C115.766 52.5249 116.212 52.169 116.841 51.8046C88.8198 74.7746 55.1831 129.537 62.0686 166.536C76.9946 246.739 49.1316 353.538 98.4855 387.507C185.119 447.136 226.399 424.565 272.434 411.549C294.151 405.408 311.851 384.254 321.072 367.424C313.941 390.429 300.465 408.776 281.814 420.779C265.184 431.482 242.108 438.349 213.578 441.084C202.756 442.121 173.785 441.4 161.959 439.799C130.761 435.574 97.8736 425.114 81.7028 414.273C74.5248 409.461 61.8212 396.688 56.0075 388.435C50.6567 380.84 44.2686 368.164 42.8239 362.275C39.7568 349.773 39.5349 328.703 42.1676 300.123C44.679 272.86 44.37 257.305 40.8141 231.812C39.4308 221.895 37.8941 209.805 37.3981 204.943C36.2344 193.535 36.2385 164.669 37.4056 153.324C40.6677 121.623 50.1846 97.0856 65.2923 81.4179C72.0572 74.4022 75.1241 72.3726 78.5911 72.6229C80.7148 72.7763 81.3489 72.5654 81.3489 71.707C81.3489 71.0939 80.9395 70.5937 80.4388 70.5937C79.938 70.5937 77.9488 68.9734 76.0189 66.994C74.0889 65.0146 70.4413 61.9354 67.9134 60.1523C61.3311 55.5092 60.2071 54.3892 58.2376 50.5194C53.3854 40.9858 56.6312 31.4758 66.3978 26.6171C69.2733 25.1866 70.6923 24.9886 77.8141 25.0215ZM79.0641 39.6289C76.9562 39.5168 75.1019 40.0675 73.6247 41.3105C71.7356 42.9 71.4508 43.6016 71.4508 46.6367C71.4508 51.3267 72.8969 54.5057 75.8708 56.3437C79.0407 58.3028 80.1947 58.2774 77.5505 56.3066C73.2147 53.0751 72.3322 46.9741 75.7126 43.5937C77.5914 41.7149 78.1735 41.5118 80.4528 41.9394C83.4869 42.5086 87.8123 44.6087 91.0915 47.1054C94.5508 49.7392 94.6021 48.524 91.156 45.5742C86.7979 41.8438 82.5773 39.8157 79.0641 39.6289Z" fill="black" stroke="#9D9D9D" stroke-width="0.494975" stroke-linecap="round"/>
<path d="M207.387 244.772C191.181 244.772 178.042 238.045 178.042 229.746C178.042 221.448 191.181 214.72 207.387 214.72C223.594 214.72 236.732 221.448 236.732 229.746C236.732 238.045 223.594 244.772 207.387 244.772Z" fill="black"/>
<path d="M202.354 238.425H212.604C216.747 238.425 220.104 241.783 220.104 245.925V247.175C220.104 251.317 216.747 254.675 212.604 254.675H202.354C198.212 254.675 194.854 251.317 194.854 247.175V245.925C194.854 241.783 198.212 238.425 202.354 238.425Z" fill="black"/>
</g>
<path d="M18.927 156.141C19.2175 165.884 21.6502 175.287 25.7799 184.01C29.9095 192.734 35.7343 200.782 42.8003 207.753C49.8662 214.725 58.1714 220.621 67.2829 224.962C76.3944 229.303 86.3126 232.087 96.6357 232.786C106.959 233.484 116.714 232.022 125.537 228.718C134.361 225.414 142.252 220.27 148.821 213.676C155.391 207.083 160.638 199.04 164.167 189.992C167.696 180.944 169.504 170.891 169.208 160.323C168.911 149.755 166.54 139.682 162.518 130.59C158.496 121.497 152.825 113.387 145.916 106.675C139.008 99.9631 130.863 94.6503 121.867 91.0683C112.871 87.4862 103.021 85.6314 92.6939 85.7748C82.3667 85.9182 72.5364 88.0353 63.5996 91.6725C54.6627 95.3098 46.6216 100.47 39.9035 106.787C33.1854 113.104 27.792 120.581 24.1543 128.905C20.5167 137.228 18.6365 146.398 18.927 156.141Z" fill="#394655"/>
<path d="M24.0092 153.915C24.0086 163.084 25.9983 172.079 29.6246 180.531C33.2508 188.984 38.5161 196.893 45.0434 203.784C51.5708 210.674 59.3599 216.541 67.9873 220.853C76.6148 225.165 86.0768 227.918 95.9388 228.614C105.801 229.309 115.127 227.88 123.548 224.702C131.97 221.524 139.49 216.597 145.754 210.329C152.018 204.06 157.026 196.449 160.418 187.933C163.81 179.417 165.585 169.995 165.38 160.141C165.176 150.286 163.012 140.941 159.292 132.531C155.572 124.122 150.297 116.648 143.86 110.454C137.424 104.261 129.826 99.3481 121.432 95.9819C113.038 92.6158 103.847 90.7922 94.2009 90.7427C84.5547 90.6932 75.3636 92.413 66.9859 95.521C58.6082 98.629 51.0456 103.129 44.6816 108.737C38.3176 114.345 33.1528 121.064 29.5763 128.664C25.9999 136.265 24.0102 144.747 24.0092 153.915Z" fill="white"/>
<path d="M75.7321 171.103C64.5088 171.103 55.4105 162.004 55.4105 150.781C55.4105 139.558 64.5088 130.459 75.7321 130.459C86.9554 130.459 96.0537 139.558 96.0537 150.781C96.0537 162.004 86.9554 171.103 75.7321 171.103Z" fill="#394455"/>
<path d="M84.727 151.447C79.2073 151.447 74.7327 146.973 74.7327 141.453C74.7327 135.933 79.2073 131.459 84.727 131.459C90.2466 131.459 94.7212 135.933 94.7212 141.453C94.7212 146.973 90.2466 151.447 84.727 151.447Z" fill="white"/>
<path d="M220.97 154.089C221.26 163.832 223.693 173.235 227.823 181.958C231.952 190.682 237.777 198.729 244.843 205.701C251.909 212.673 260.214 218.569 269.326 222.91C278.437 227.251 288.356 230.035 298.679 230.734C309.002 231.432 318.757 229.969 327.58 226.666C336.404 223.362 344.295 218.218 350.864 211.624C357.434 205.031 362.681 196.988 366.21 187.94C369.739 178.892 371.547 168.839 371.251 158.271C370.954 147.703 368.583 137.63 364.561 128.538C360.539 119.445 354.868 111.335 347.959 104.623C341.051 97.911 332.906 92.5982 323.91 89.0161C314.914 85.4341 305.064 83.5793 294.737 83.7227C284.41 83.8661 274.579 85.9832 265.643 89.6204C256.706 93.2576 248.665 98.4174 241.946 104.735C235.228 111.052 229.835 118.529 226.197 126.853C222.56 135.176 220.679 144.346 220.97 154.089Z" fill="#394655"/>
<path d="M226.052 151.863C226.052 161.031 228.041 170.027 231.668 178.479C235.294 186.931 240.559 194.84 247.086 201.731C253.614 208.622 261.403 214.489 270.03 218.8C278.658 223.112 288.12 225.866 297.982 226.562C307.844 227.257 317.17 225.828 325.591 222.65C334.013 219.471 341.533 214.545 347.797 208.277C354.061 202.008 359.069 194.397 362.461 185.881C365.853 177.364 367.628 167.943 367.423 158.088C367.219 148.234 365.055 138.889 361.335 130.479C357.615 122.069 352.34 114.595 345.903 108.402C339.466 102.209 331.869 97.2958 323.475 93.9297C315.081 90.5635 305.89 88.74 296.244 88.6905C286.598 88.641 277.407 90.3607 269.029 93.4687C260.651 96.5767 253.089 101.076 246.725 106.684C240.361 112.293 235.196 119.012 231.619 126.612C228.043 134.213 226.053 142.695 226.052 151.863Z" fill="white"/>
<path d="M321.641 171.831C310.417 171.831 301.319 162.732 301.319 151.509C301.319 140.286 310.417 131.188 321.641 131.188C332.864 131.188 341.962 140.286 341.962 151.509C341.962 162.732 332.864 171.831 321.641 171.831Z" fill="#394455"/>
<path d="M330.635 152.175C325.116 152.175 320.641 147.701 320.641 142.181C320.641 136.661 325.116 132.187 330.635 132.187C336.155 132.187 340.629 136.661 340.629 142.181C340.629 147.701 336.155 152.175 330.635 152.175Z" fill="white"/>
<g clip-path="url(#clip0_2001_97)">
<path d="M301.032 272.575H163.93V430.408H301.032V272.575Z" fill="white"/>
<path d="M160.211 267.537C154.998 267.537 150.798 271.479 150.798 276.39V425.617C150.798 430.518 154.998 434.47 160.211 434.47H294.587C299.8 434.47 304 430.518 304 425.617V276.39C304 271.479 299.8 267.537 294.587 267.537H160.211ZM158.572 275.382H296.225V426.437L158.036 426.615L158.324 274.868L158.572 275.382Z" fill="#D24625"/>
<path d="M267.518 374.9H170.789V384.887H267.518V374.9Z" fill="#D24625"/>
<path d="M267.518 398.441H170.789V408.428H267.518V398.441Z" fill="#D24625"/>
<path d="M224.327 325.445H256.757C256.757 321.207 255.919 317.011 254.289 313.096C252.659 309.181 250.27 305.624 247.259 302.627C244.248 299.631 240.673 297.254 236.738 295.633C232.803 294.011 228.586 293.177 224.327 293.177V325.445Z" fill="#D24625"/>
<path d="M219.718 329.483V297.215C213.305 297.215 207.035 299.107 201.703 302.653C196.37 306.199 192.214 311.238 189.759 317.134C187.305 323.03 186.663 329.518 187.914 335.777C189.166 342.036 192.254 347.785 196.789 352.297C201.324 356.81 207.103 359.883 213.393 361.128C219.683 362.373 226.204 361.734 232.129 359.292C238.054 356.85 243.119 352.715 246.682 347.409C250.246 342.103 252.148 335.864 252.148 329.483H219.718Z" fill="#D24625"/>
<path d="M194.638 463V244L62 265.894V441.096L194.638 463Z" fill="url(#paint0_linear_2001_97)"/>
<path d="M105.814 390.652V317.273L131.343 315.861C139.605 315.596 143.457 318.384 147.27 323.808C150.596 328.551 151.589 335.373 151.073 341.341C149.97 353.948 142.136 364.836 130.35 365.428H119.596V351.875H126.765C131.903 351.649 135.756 346.075 135.51 340.284C135.289 333.754 131.839 329.881 127.168 329.717L119.596 329.762L119.606 391.472L105.814 390.652Z" fill="white"/>
</g>
<path d="M214.325 227.972L207.546 228.06L203.574 227.973C202.308 227.945 201.269 228.544 200.577 229.428C199.885 230.311 199.658 231.534 199.66 232.87L199.67 240.428L199.263 248.013C199.19 249.379 199.724 250.583 200.513 251.459C201.302 252.336 202.39 252.835 203.592 252.864L207.6 252.959L215.474 252.775C216.984 252.739 218.306 252.15 219.208 251.246C220.11 250.342 220.543 249.112 220.472 247.77L220.077 240.243L219.553 232.728C219.46 231.391 218.689 230.192 217.726 229.334C216.763 228.476 215.548 227.965 214.325 227.972Z" fill="#2E3436"/>
<path d="M213.415 230.26L207.883 230.334L205.227 230.226C204.218 230.185 203.365 230.691 202.773 231.414C202.181 232.137 201.919 233.14 201.887 234.234L201.71 240.413L201.265 246.609C201.186 247.715 201.57 248.711 202.194 249.427C202.817 250.142 203.704 250.53 204.704 250.569L207.431 250.677L213.689 250.541C214.874 250.515 215.937 250.037 216.681 249.299C217.426 248.561 217.826 247.555 217.806 246.456L217.697 240.301L217.482 234.154C217.445 233.059 216.878 232.077 216.13 231.374C215.382 230.672 214.414 230.247 213.415 230.26Z" fill="white"/>
<path d="M178.651 224.841C178.84 227.264 180.332 229.456 182.454 231.43C184.575 233.403 187.505 235.153 190.898 236.586C194.292 238.019 198.12 239.121 201.997 239.71C205.874 240.299 209.802 240.364 213.664 239.899C217.525 239.433 220.982 238.507 223.984 237.362C226.986 236.217 229.508 234.859 231.494 233.352C233.481 231.845 234.949 230.176 235.877 228.313C236.804 226.451 237.188 224.389 236.852 222.166C236.516 219.944 235.474 217.777 233.866 215.786C232.258 213.795 230.096 211.983 227.555 210.475C225.015 208.966 222.101 207.763 218.885 206.974C215.668 206.185 212.146 205.811 208.292 205.938C204.438 206.065 200.592 206.678 196.941 207.693C193.289 208.707 189.848 210.128 186.979 211.864C184.111 213.6 181.754 215.6 180.378 217.858C178.968 220.17 178.489 222.777 178.651 224.841Z" fill="#394655"/>
<path d="M186.81 224.297C187.141 226.222 188.267 228.019 189.996 229.63C191.725 231.24 194.054 232.667 196.702 233.805C199.349 234.943 202.301 235.785 205.311 236.227C208.321 236.669 211.392 236.71 214.412 236.341C217.431 235.973 220.128 235.243 222.468 234.31C224.808 233.377 226.783 232.242 228.332 230.976C229.881 229.71 231.008 228.307 231.673 226.78C232.337 225.252 232.541 223.595 232.195 221.841C231.849 220.086 230.98 218.4 229.698 216.862C228.415 215.324 226.722 213.936 224.728 212.787C222.734 211.637 220.441 210.728 217.912 210.14C215.384 209.552 212.62 209.285 209.627 209.409C206.635 209.533 203.682 210.034 200.894 210.84C198.105 211.646 195.485 212.757 193.271 214.106C191.058 215.454 189.261 217.04 188.116 218.77C186.972 220.5 186.479 222.373 186.81 224.297Z" fill="#E1D0CB"/>
<path d="M193.502 211.896C193.985 213.275 195.034 214.5 196.485 215.534C197.937 216.567 199.785 217.412 201.79 218.059C203.795 218.707 205.949 219.16 208.057 219.401C210.165 219.642 212.226 219.67 214.158 219.456C216.09 219.243 217.72 218.808 219.1 218.203C220.48 217.599 221.61 216.824 222.499 215.912C223.389 214.999 224.04 213.948 224.418 212.784C224.796 211.62 224.901 210.341 224.644 208.99C224.388 207.638 223.79 206.343 222.885 205.172C221.98 204.001 220.77 202.956 219.307 202.108C217.843 201.26 216.127 200.61 214.221 200.224C212.316 199.838 210.22 199.716 208.01 199.914C205.8 200.111 203.686 200.608 201.775 201.332C199.863 202.056 198.154 203.006 196.77 204.108C195.387 205.209 194.329 206.464 193.736 207.791C193.144 209.118 193.02 210.517 193.502 211.896Z" fill="#394655"/>
<path d="M45.6865 273.964C43.8328 276.995 43.037 279.62 43.0921 281.946C43.1472 284.273 44.0426 286.312 45.4184 288.301C46.7941 290.29 48.6331 292.247 50.6386 294.273C52.644 296.298 54.8287 298.368 57.0397 300.418C59.2506 302.468 61.4598 304.242 63.6164 305.668C65.7729 307.095 67.8671 308.191 69.8449 308.813C71.8227 309.435 73.6882 309.573 75.4076 309.007C77.1271 308.442 78.7031 307.166 80.0691 305.011C81.4351 302.856 81.9238 300.875 81.7128 299.08C81.5017 297.286 80.5879 295.685 79.194 294.201C77.8001 292.716 75.9281 291.348 73.857 289.848C71.786 288.347 69.5289 286.689 67.3278 284.598C65.1267 282.507 63.2326 279.881 61.438 277.385C59.6435 274.888 57.9391 272.547 56.2252 270.977C54.5114 269.408 52.7932 268.613 51.0471 268.998C49.301 269.384 47.5401 270.934 45.6865 273.964Z" fill="#E1D6B9"/>
<path d="M56.6106 268.996C58.344 270.329 60.0963 272.282 61.9277 274.482C64.0207 276.995 66.2179 279.807 68.7573 282.214C71.2966 284.621 73.8353 286.591 76.1348 288.427C78.4343 290.264 80.4772 292 81.9748 293.888C83.4725 295.775 84.4215 297.814 84.6214 300.011C84.8213 302.208 84.2788 304.55 82.8511 306.955C81.4233 309.36 79.6322 310.857 77.6064 311.584C75.5806 312.31 73.3167 312.273 70.9104 311.679C68.5041 311.085 65.9521 309.947 63.3606 308.4C60.7691 306.854 58.1494 304.882 55.5971 302.533C53.0449 300.184 50.6614 297.857 48.5414 295.619C46.4215 293.381 44.5606 291.247 43.2358 289.065C42.7318 288.235 42.3111 287.392 41.9816 286.531C41.3161 284.793 43.6429 281.544 43.942 283.441C44.2192 285.2 44.9801 286.808 46.0659 288.378C47.389 290.29 49.1583 292.173 51.0871 294.121C53.0159 296.07 55.1175 298.059 57.244 300.031C59.3704 302.003 61.4946 303.71 63.5688 305.082C65.643 306.454 67.6574 307.508 69.5597 308.106C71.4619 308.705 73.2566 308.837 74.9104 308.293C76.5641 307.748 78.0796 306.522 79.3934 304.45C80.7073 302.377 81.1775 300.47 80.9745 298.744C80.7715 297.019 79.8932 295.48 78.5526 294.052C77.2119 292.624 75.4107 291.308 73.4188 289.865C71.4268 288.422 69.2564 286.828 67.1393 284.816C65.0223 282.805 63.1999 280.28 61.4739 277.878C59.7479 275.477 58.1088 273.226 56.4604 271.717C56.2543 271.528 56.0479 271.35 55.8417 271.185C55.3118 270.762 54.7899 270.405 54.2497 270.177C53.6268 269.913 54.3931 267.372 55.8689 268.463C56.1085 268.64 56.363 268.805 56.6106 268.996Z" fill="#394655"/>
<path d="M325.686 273.289C327.46 276.367 328.187 279.012 328.072 281.336C327.956 283.66 327.008 285.676 325.58 287.628C324.153 289.58 322.264 291.489 320.206 293.462C318.149 295.435 315.911 297.446 313.647 299.438C311.384 301.43 309.129 303.146 306.936 304.515C304.743 305.885 302.621 306.926 300.628 307.496C298.634 308.067 296.766 308.157 295.062 307.546C293.358 306.936 291.816 305.619 290.506 303.429C289.197 301.239 288.76 299.246 289.018 297.458C289.275 295.669 290.23 294.094 291.663 292.646C293.095 291.198 295.002 289.879 297.111 288.433C299.221 286.987 301.52 285.389 303.775 283.355C306.03 281.322 307.992 278.747 309.851 276.298C311.71 273.849 313.474 271.553 315.229 270.029C316.983 268.505 318.721 267.754 320.457 268.185C322.192 268.616 323.912 270.211 325.686 273.289Z" fill="#E1D6B9"/>
<path d="M314.895 268.038C313.128 269.325 311.325 271.232 309.437 273.383C307.279 275.842 305.01 278.595 302.408 280.935C299.807 283.275 297.218 285.178 294.872 286.954C292.525 288.73 290.438 290.412 288.891 292.26C287.345 294.109 286.343 296.121 286.086 298.312C285.829 300.503 286.31 302.859 287.675 305.3C289.039 307.742 290.791 309.285 292.797 310.064C294.803 310.843 297.067 310.865 299.488 310.334C301.909 309.803 304.49 308.732 307.121 307.253C309.752 305.775 312.422 303.872 315.035 301.59C317.647 299.309 320.091 297.044 322.268 294.862C324.446 292.68 326.362 290.595 327.743 288.449C328.268 287.632 328.711 286.801 329.063 285.949C329.773 284.228 327.532 280.919 327.183 282.809C326.86 284.559 326.058 286.148 324.932 287.688C323.559 289.566 321.741 291.401 319.762 293.299C317.783 295.196 315.631 297.131 313.454 299.046C311.276 300.962 309.109 302.613 306.999 303.93C304.89 305.248 302.849 306.249 300.932 306.798C299.014 307.346 297.217 307.432 295.578 306.845C293.939 306.258 292.456 304.992 291.196 302.886C289.937 300.78 289.517 298.862 289.765 297.142C290.013 295.422 290.931 293.906 292.308 292.514C293.685 291.122 295.52 289.853 297.549 288.462C299.578 287.071 301.789 285.534 303.958 283.579C306.127 281.623 308.014 279.146 309.802 276.791C311.59 274.435 313.288 272.228 314.975 270.762C315.186 270.579 315.397 270.406 315.607 270.247C316.148 269.838 316.679 269.494 317.225 269.28C317.854 269.033 317.155 266.473 315.651 267.525C315.407 267.696 315.148 267.854 314.895 268.038Z" fill="#394655"/>
<defs>
<linearGradient id="paint0_linear_2001_97" x1="194.636" y1="353.501" x2="62.0037" y2="353.501" gradientUnits="userSpaceOnUse">
<stop stop-color="#D04223"/>
<stop offset="1" stop-color="#D44A27"/>
</linearGradient>
<clipPath id="clip0_2001_97">
<rect width="242" height="219" fill="white" transform="translate(62 244)"/>
</clipPath>
</defs>
</svg>
